<?xml version="1.0" encoding="UTF-8"?><svg id="Layer_1" xmlns="http://www.w3.org/2000/svg" viewBox="0 0 733 262"><defs><style>.cls-1{fill:#fff;stroke-width:0px;}</style></defs><path class="cls-1" d="M457.1,65.01c-.1,0-.21.01-.32.01h0s.31-.01.31-.01Z"/><path class="cls-1" d="M457.36,65.01c-.09-.01-.18,0-.26,0,.09,0,.17-.01.25-.01h.01Z"/><path class="cls-1" d="M726.43,133.47c-9.57-5.11-19.63-8.44-26.83-10.43,0-1.71-.04-44.33-3.64-79.04,0,0-2.19,21.99-2.8,32.68-.62,10.69-3.68,24.74-1.22,39.7l.3,4.83c-1.7-.37-2.68-.55-2.68-.55,0,0-33.84-8.13-98.56-12.83l1.39,3.58-1.4-3.45c-2.98-.2-6.02-.38-9.16-.56,0,0-.21-.03-.6-.17l-2.17-1.21c-.52-.37-1.08-.83-1.71-1.4-.13-.13-.34-.31-.63-.56.16,0,.33,0,.5-.01h.12l-.78-.12s-.03-.02-.05-.04c-.04-.04-.08-.07-.12-.1.27-.01.42-.01.42-.01l-.73-.45c-7.03.22-14.95.61-24.29,4.07l-2.74,1.02c-7.73,2.87-11.26,4.18-14.87,4.95l-.56.12c-1.6.34-3.42.74-5.23.74-2.78,0-5.49-.94-7.22-4.42-3.16-6.33-15.64-33.5-15.77-33.78-.01-.03-.78-1.61-.23-2.68.26-.52.85-.86,1.73-1.01,3.04-.51,6.8-1.57,8.22-1.98-4.87-1.45-9.81-2.55-14.71-3.18-11.28-1.47-29.49-2.25-43.05-2.17-.09-.01-.18,0-.26,0-.1,0-.21.01-.32.01-27.31.94-62.96,5.38-106.07,14.26l-.14-.28c-33.37,7.2-93.66,25.98-118.57,28.1l.16.46c-7.81.47-39.74,2.33-52.24,2.45-17.28.17-55.72-9.47-78.84-35.76h-.01s-.13-.33-.13-.33c-.21-.32-.41-.64-.62-.96l-17.27-28.19-15.25-25.03h-.09l-.02-.02c-4.04-6.6-15.78-11.72-30.07-11.72s-32.62.22-32.62.22l31.18,131.51,1.23,5.21c4.05,14.06,17.92,23.21,43.93,23.43,0,0,22.06.16,52.68,1.38l.14.41c9,.43,33.09,1.48,42.77,2.11,23.66,1.54,51.59,5.06,80.52,8.87l.08.24c31.51,4.19,78.83,10.28,107.22,12.35l-9.72,19.31c-.39.21-.63.47-.63.77,0,.66,1.24,1.19,2.77,1.19s2.76-.53,2.76-1.19c0-.16-.07-.3-.19-.44h.05l9.6-19.33c5.65.37,24.7,1.24,33.91,1.58l1.57,4.79-.17.34s-.01.02-.02.03l-.07.14h.02c-.11.27-.18.56-.19.86-.05,1.45,1.08,2.68,2.53,2.74,1.01.03,1.9-.51,2.37-1.33l.07.03,4.22-7.17.57-.9c.93.01,1.88.03,2.85.05,1.61.03,3.28.06,5,.09,1.14.01,2.32.03,3.51.05,1.79.03,3.62.05,5.5.07,1.25.03,2.52.04,3.82.05,1.35.01,2.73.03,4.12.04.17.76.27,1.55.27,2.4,0,4.78-.14,15.44-.22,20.84-10.95,1.35-19.63,4.32-26.75,6.56l-.13-.3c-4.51,1.02-17.61,4.01-17.61,4.01,0,0-1.79.25-1.54,2.02.26,1.78,1.28,7.6,1.28,7.6,0,0,.26,1.27,2.56,1.52,1.72.19,19.45,3.94,24.14,4.85l-.04-.1c5.23,1.22,10.06,2.17,10.06,2.17l4.37-.12c3,4.26,7.95,7.05,13.54,7.05,5.93,0,11.11-3.11,14.05-7.8l5.27-.14s11.75-4.5,11.75-14.02c0-6.5-8.39-12.25-22.13-13.69v-21.95c0-.28.02-.55.05-.81,4.11,0,8.29-.03,12.5-.06,2.91-.02,5.83-.05,8.75-.09,1.46-.03,2.92-.05,4.37-.07,2.19-.04,4.36-.08,6.53-.13,5.85-.14,11.55-.31,17.03-.51l20.16-.63.27.49c26.68-1.13,35.38-2.46,42.89-3.08l-9.3,6.45,8.93.28,5.89-3.65c.85,1.08,1.49,1.89,1.49,1.89,0,0,11.66-3.05,24.63-7.22l47.53,29.75c-.58-.01-1.18-.01-1.78-.01-.98,0-1.91.02-2.81.05l2.15,15.45-2.29-15.5c-12.9,1.22-23.68,5.76-43.3,8.06,0,0-2.82.28-2.54,1.67.29,1.39.57,6.7.57,6.7,0,0,.28,1.12,2.25,1.12s8.75,1.39,21.16,5.29c0,0,5.28,1.83,13.68,2.98,2.38,4.66,6.84,8.18,12.47,8.18.25,0,.44,0,.57-.03v.03c8.72,0,12.41-6.02,13.58-8.39,10.21-1.93,17.7-6.15,17.7-11.39,0-3.64-2.34-7.34-8.06-10.06l.35.15.32-1.02-2.57-1.02-.38.94c-.85-.32-1.77-.62-2.75-.9-6.93-4.46-44.13-28.98-44.34-29.08-2.28-1.14-1.71-3.15-1.71-3.15,0,0,.59-.51,1.28-1.63l-1.69-4.17c12.43-3.76,37.22-12.22,48.16-18.75.41-.01.65-.01.7-.01l7.22-5.16h-.64c.87-.63,1.82-1.32,2.82-2.01l-.05.11c.12-.11.24-.21.35-.31,1.68-1.15,3.45-2.28,5.1-3.17,1.7-.92,3.28-1.59,4.45-1.74v.21s1.19-.21,3.22-.66c.8,10.35,3.36,16.67,4.38,30.09l.61,15.12c.5-3.52,2.05-34.87,2.58-47.13,7.13-2,16.84-5.28,26.08-10.21,0,0,2.57-1.29,2.57-2.78v-.64c0-1.49-2.57-2.77-2.57-2.77ZM422.32,116.44c-1.75,2.42-6.67,2.52-6.72,2.52-.1,0-3.72.09-9.09.09-9.95,0-25.91-.3-36.63-1.98-.27-.04-.54-.09-.8-.14l-15.06-7.06c-2.66-2.54-3.44-4.74-3.45-4.79-.01-.03-.03-.07-.05-.1-.01-.03-3.87-5.3,6.43-12.72.8-.43,1.66-.85,2.59-1.26,14.08-6.12,31.35-9.18,40.62-10.81,1.73-.31,3.2-.57,4.35-.8.8-.15,1.52-.22,2.18-.22,5.04,0,6.58,3.97,6.67,4.24.18.57,7.31,23.11,9.31,29.54.43,1.42.32,2.56-.35,3.49ZM501.82,114.89c-.92,1.38-2.76,2.24-4.83,2.24-1.05,0-4.79.06-9.79.16h-11.5c-.59.01-1.18.02-1.78.03-12.07.24-24.54.47-27.05.47-4.38,0-6.33-4.57-6.35-4.61-.06-.23-8.14-26.38-10.01-32.28-.49-1.53-.4-2.76.23-3.69,1.22-1.73,4.06-1.88,4.08-1.88,7.06-.7,16.63-1.24,23.63-1.5,7.74.28,16.13.6,17.66.68.93.05,1.81.09,2.66.14,8.52.41,10.23,5.27,10.3,5.48,0,.01.01.03.01.04.12.27,11.38,27.22,12.96,30.98.58,1.36.5,2.65-.22,3.74Z"/></svg>