<?xml version="1.0" encoding="utf-8"?>
<!-- Generator: Adobe Illustrator 28.3.0, SVG Export Plug-In . SVG Version: 6.00 Build 0)  -->
<svg version="1.1" id="Layer_1" xmlns="http://www.w3.org/2000/svg" xmlns:xlink="http://www.w3.org/1999/xlink" x="0px" y="0px"
	 viewBox="0 0 1200 1200" style="enable-background:new 0 0 1200 1200;" xml:space="preserve">
<style type="text/css">
	.st0{fill:#FFFFFF;}
</style>
<g>
	<g>
		<path class="st0" d="M593.6,715.4c0-15.2,0-29.6,0-44.1c0-1.9-0.3-3.9,0.2-5.7c0.4-1.3,1.8-2.4,2.7-3.6c0.9,1.2,2.5,2.4,2.6,3.7
			c0.5,8.7,0.6,17.5,0.8,26.3c0.1,7.6,0,15.1,0,23.4c3.7,0,6.6-0.1,9.4,0c16.6,0.3,29.8,13.3,29.9,29.9c0.2,14.3,0.2,28.5,0,42.9
			c-0.1,10.6-7.5,19.3-17.9,20.4c-6,0.6-12.1,0.1-18.4,0.1c-0.4-2.7-0.9-4.6-0.8-6.4c0.2-4.2-1.2-6.2-5.8-6.2
			c-4.6,0.1-6.2,1.9-5.8,6.2c0.5,4.6-1.5,6.6-6.2,6.2c-3.6-0.3-7.3,0-10.8-0.2c-11.2-0.5-19.4-8.5-19.6-19.7
			c-0.2-14.9-0.2-29.7,0.1-44.6c0.2-15.4,13-28,28.6-28.5C585.5,715.3,588.6,715.4,593.6,715.4z M635.1,748.2
			c-0.2-14.6-3.5-19.3-17.3-23.5c-15-4.5-29.8-4-44.8,0.5c-9.7,2.9-14.4,9.1-15.5,18.6c-0.3,2.8-0.4,5.7-0.2,8.5
			c0.3,5,3.1,6.5,7.7,4.4c4.1-1.8,8.3-3.9,12.6-5c16.9-4.4,33.5-3.2,49.4,4.4c5.7,2.7,8,1.2,8-5.2
			C635.1,750.2,635.1,749.2,635.1,748.2z M596.7,783.5c6.3-0.2,11.9-5.9,11.8-12.2c-0.2-6.4-5.8-11.8-12.2-11.7
			c-6.5,0.1-11.9,5.7-11.7,12.2C584.7,778.3,590.2,783.7,596.7,783.5z M619.8,764.6c-3.3,2.7-5.5,4.6-7.7,6.6c2.3,1.7,4.7,4.8,7,4.9
			c2.5,0.1,5.1-2.8,7.6-4.4C624.7,769.6,622.7,767.6,619.8,764.6z M571.6,778.4c3.4-2.9,5.8-4.8,8.2-6.8c-2.2-1.7-4.4-4.8-6.6-4.8
			c-2.7,0.1-5.5,2.6-8.3,4.1C566.8,773,568.7,775.2,571.6,778.4z"/>
		<path class="st0" d="M637.9,804c2.4-6.2,4.7-12,7.2-18.5c112.2-5.6,225.3-11.3,338.5-16.9c0.2,0.3,0.5,0.5,0.7,0.9
			c-4.1,1.9-8,5-12.2,5.4c-65.8,5.8-131.7,11.5-197.5,17c-28.2,2.4-56.5,4.6-84.8,7c-1.6,0.2-3.2,1.3-4.8,2c0.8,1.4,1.2,3.2,2.4,4.2
			c5.8,5.1,11.9,10,18.9,15.8c0.9-1.3,1.5-3.1,2.7-3.7c2.3-1.2,5.8-3.3,7.3-2.4c2.8,1.6,6.3,5,6.4,7.7c0.2,8.9-0.8,17.9-2.2,26.8
			c-0.2,1.2-4.8,2.6-7.3,2.6c-1.8,0-4.8-1.7-5.2-3.3c-1.2-5.1-1.7-10.5-2.3-15.8c-0.7-6.8-6.9-9.3-10.8-13.4
			c-5.4-5.8-11.6-10.9-17.9-16c-1.9-1.6-5-2.6-7.4-2.4C659,801.5,648.2,802.8,637.9,804z"/>
		<path class="st0" d="M547.3,785.5c2.6,6.9,4.6,12.2,6.8,18c-9.7-0.9-20-1.7-30.3-2.9c-3.3-0.4-5.5,0.1-8,2.6
			c-8,7.7-16.4,14.8-24.3,22.5c-2,2-3.3,5.4-3.9,8.3c-1.1,4.8-1,10-2.4,14.7c-0.5,1.5-3.8,2.7-6.1,3c-2.6,0.4-6.2,1.2-6.8-3
			c-0.9-7-1.4-14.1-2.1-21.1c-0.6-5.8,0.8-11.5,6.6-12.9c3.3-0.8,7.5,2.4,12.3,4.1c5.6-5.4,14.5-9.8,20.4-19.3
			c-13.5-1.2-25.1-2.3-36.8-3.4c-41.7-3.7-83.5-7.4-125.2-10.9c-39.2-3.3-78.5-6.3-117.8-9.4c-7.7-0.6-15.8-0.3-20.8-7.3
			C321.9,774.1,435.2,779.8,547.3,785.5z"/>
		<path class="st0" d="M549.8,766.3c-6.6,0-12.9,0.2-19.1,0c-22.2-0.7-44.5-1.6-66.7-2.4c-1.5-0.1-3-0.1-4.5-0.5
			c-0.7-0.2-1.6-1.2-1.6-1.8c0-0.6,0.9-1.5,1.6-1.8c1-0.4,2.3-0.5,3.4-0.5c27.8-1,55.5-1.9,83.3-2.9c1.1,0,2.2,0.2,3.7,0.3
			C549.8,759.9,549.8,762.9,549.8,766.3z"/>
		<path class="st0" d="M735,763.1c-30.6,1.4-61.1,2.9-92.1,4.3c-0.2-2.4-0.4-4.1-0.4-5.7c0-1.7,0.2-3.4,0.2-6
			c30.9,1.4,61.5,2.9,92.1,4.3C734.8,761,734.9,762.1,735,763.1z"/>
		<path class="st0" d="M599.5,819.2c5.5,0.2,6.3,4,5.8,8.3c-0.5,4.1,2.1,9-3.1,12.3c-1,0.6,0.2,4.1-0.6,5.9
			c-0.8,1.8-2.6,4.1-4.2,4.4c-1.7,0.3-5.5-1.6-5.4-2.5c0.2-7.3-6.2-12.9-4.5-20.6c0.9-3.9,0.7-7.6,6-7.8c0-5.5-0.2-10.8,0.2-16.1
			c0.2-1.6,1.9-3.1,3-4.6c0.9,1.5,2.7,2.9,2.8,4.4C599.7,808.1,599.5,813.4,599.5,819.2z"/>
	</g>
</g>
<g>
	<path class="st0" d="M1131.6,80.7H68.7c-28.3,0-51.3,23-51.3,51.3v942.9c0,28.3,23,51.3,51.3,51.3h1062.9
		c28.3,0,51.3-22.9,51.3-51.3V132C1182.9,103.7,1159.9,80.7,1131.6,80.7z M1158.9,1074.9c0,15-12.2,27.3-27.3,27.3H68.7
		c-15,0-27.3-12.2-27.3-27.3V132c0-15,12.2-27.3,27.3-27.3h1062.9c15,0,27.3,12.2,27.3,27.3V1074.9z"/>
</g>
<path class="st0" d="M1113.4,865.4h-20c0-53.3-13-105-38.7-153.7c-0.2-0.3-0.3-0.6-0.5-0.9c-24.9-46.8-60.3-89-105.5-125.2
	c-45.6-36.6-98.8-65.4-158-85.5c-4.1-1.4-8.2-2.7-12.3-4c-57.8-18.2-118.9-27.4-181.7-27.4c-67.3,0-132.6,10.6-194,31.4
	c-59.2,20.1-112.4,48.9-158,85.5c-45.5,36.5-81.1,78.9-106,126.1C113,760.4,99.9,812.1,99.9,865.4h-20c0-56.5,13.8-111.4,41-163
	c26.2-49.6,63.6-94.2,111.2-132.4c47.4-38.1,102.7-68,164.1-88.8c63.5-21.6,131-32.5,200.5-32.5c63,0,124.4,9,182.7,26.8
	c6,1.8,11.9,3.7,17.8,5.7c61.5,20.9,116.7,50.8,164.1,88.8c36.2,29,66.4,61.7,90.4,97.5c7.6,11.3,14.5,23,20.8,34.9
	C1099.6,754,1113.4,808.8,1113.4,865.4z"/>
<g>
	<path class="st0" d="M1102.7,160.8H721.3l21.4,173.3h43.4l-6.8,141.3c6,1.8,11.9,3.7,17.8,5.7c61.5,20.9,116.7,50.8,164.1,88.8
		c36.2,29,66.4,61.7,90.4,97.5l-20.1-333.4h49L1102.7,160.8z M838.7,297.5h-85.4l-12-97.6h97.4V297.5z M970.6,297.5H852.4V200h118.2
		V297.5z M984.3,297.5V200h98.2l-12.5,97.6H984.3z"/>
</g>
</svg>
