<?xml version="1.0" encoding="utf-8"?>
<!-- Generator: Adobe Illustrator 28.3.0, SVG Export Plug-In . SVG Version: 6.00 Build 0)  -->
<svg version="1.1" id="Layer_1" xmlns="http://www.w3.org/2000/svg" xmlns:xlink="http://www.w3.org/1999/xlink" x="0px" y="0px"
	 viewBox="0 0 1200 1200" style="enable-background:new 0 0 1200 1200;" xml:space="preserve">
<style type="text/css">
	.st0{fill:#FFFFFF;}
</style>
<g>
	<path class="st0" d="M1131.2,77H68.3C40,77,17,99.9,17,128.2v942.9c0,28.3,23,51.3,51.3,51.3h1062.9c28.3,0,51.3-23,51.3-51.3
		V128.2C1182.5,99.9,1159.5,77,1131.2,77z M1158.5,1071.1c0,15-12.2,27.3-27.3,27.3H68.3c-15,0-27.3-12.2-27.3-27.3V128.2
		c0-15,12.2-27.3,27.3-27.3h1062.9c15,0,27.3,12.2,27.3,27.3V1071.1z"/>
</g>
<g>
	<path class="st0" d="M837.5,274.2H362c-18.4,0-33.2,14.9-33.2,33.2v584.5c0,18.4,14.9,33.2,33.2,33.2h475.5
		c18.4,0,33.2-14.9,33.2-33.2V307.4C870.7,289.1,855.9,274.2,837.5,274.2z M491.3,679.4h-22.8L391.9,520H417l55.5,117.9
		c1,2.1,1.9,3.9,2.6,5.4c0.7,1.5,1.3,2.9,1.8,4.3c0.5,1.4,1,2.8,1.5,4.4s1,3.5,1.8,5.8c0.5-2,0.8-3.6,1.1-5c0.3-1.4,0.6-2.6,1-3.8
		c0.4-1.2,0.9-2.5,1.5-3.7c0.6-1.3,1.4-2.9,2.3-4.9L541.6,520h24.8L491.3,679.4z M608.2,679.4H585V520h23.2V679.4z M805.4,583.2
		c-1.4,4.8-3.5,9.2-6.2,13.1c-3.5,4.8-7.5,8.5-12,11.2c-4.5,2.6-9.2,4.6-14,5.8c-4.8,1.2-9.6,1.9-14.3,2.1
		c-4.7,0.2-9.1,0.3-13.2,0.3h-76.5v63.7h-23V520h97.3c10.5,0,19.7,0.9,27.5,2.7c7.8,1.8,14.8,5.3,21,10.6
		c5.7,5.1,9.8,10.9,12.1,17.3c2.3,6.4,3.5,12.5,3.5,18.2C807.6,573.6,806.8,578.4,805.4,583.2z"/>
	<g>
		<path class="st0" d="M779.6,581.7c-2.3,4-5.1,7-8.6,9.1c-4.2,2.9-8.9,4.5-14,5c-5.1,0.5-9.9,0.7-14.5,0.7h-73.6v-57.6h71.1
			c3.2,0,6.3,0.1,9.6,0.2c3.2,0.2,6.4,0.5,9.5,1c3.1,0.5,6,1.4,8.8,2.7c2.8,1.3,5.3,3,7.6,5.3c3.3,3.3,5.4,6.7,6.2,10.3
			c0.8,3.5,1.2,6.6,1.2,9.1C782.9,573,781.8,577.7,779.6,581.7z"/>
		<path class="st0" d="M782.9,567.6c0,5.4-1.1,10.1-3.4,14.1c-2.3,4-5.1,7-8.6,9.1c-4.2,2.9-8.9,4.5-14,5c-5.1,0.5-9.9,0.7-14.5,0.7
			h-73.6v-57.6h71.1c3.2,0,6.3,0.1,9.6,0.2c3.2,0.2,6.4,0.5,9.5,1c3.1,0.5,6,1.4,8.8,2.7c2.8,1.3,5.3,3,7.6,5.3
			c3.3,3.3,5.4,6.7,6.2,10.3C782.5,562,782.9,565.1,782.9,567.6z"/>
	</g>
</g>
</svg>
