<?xml version="1.0" encoding="utf-8"?>
<!-- Generator: Adobe Illustrator 28.3.0, SVG Export Plug-In . SVG Version: 6.00 Build 0)  -->
<svg version="1.1" id="Layer_1" xmlns="http://www.w3.org/2000/svg" xmlns:xlink="http://www.w3.org/1999/xlink" x="0px" y="0px"
	 viewBox="0 0 1200 1200" style="enable-background:new 0 0 1200 1200;" xml:space="preserve">
<style type="text/css">
	.st0{fill:#FFFFFF;}
</style>
<g>
	<g>
		<path class="st0" d="M438.2,534c-0.2-14.5-11.8-25.9-26.3-26.2c-2.4,0-4.9,0-8.2,0c0-7.2,0.1-13.9,0-20.5
			c-0.1-7.7-0.3-15.4-0.7-23.1c-0.1-1.1-1.5-2.2-2.3-3.2c-0.8,1-2.1,2-2.4,3.1c-0.4,1.6-0.2,3.3-0.2,5v38.7c-4.4,0-7.1-0.1-9.7,0
			c-13.6,0.4-24.9,11.5-25.1,25.1c-0.2,13.1-0.2,26.1,0,39.2c0.1,9.8,7.3,16.9,17.2,17.3c3.2,0.1,6.4-0.2,9.5,0.1
			c4.2,0.4,5.9-1.4,5.5-5.4c-0.4-3.8,1.1-5.4,5.1-5.5c4.1-0.1,5.3,1.7,5.2,5.4c0,0.5,0,1.1,0.1,1.6c0.6-5.7,4.9-9.8,9.1-11.4
			c2.9-1.1,5.5-1.2,7.2-1.3c5.4-0.2,10.8-0.4,16.2-0.6c0-0.3,0-0.5,0-0.8C438.3,559.1,438.4,546.5,438.2,534z M378.7,563.1
			c-2.5-2.8-4.1-4.7-5.8-6.6c2.4-1.3,4.8-3.5,7.2-3.6c1.9,0,3.8,2.7,5.7,4.2C383.8,558.9,381.7,560.6,378.7,563.1z M400.7,567.7
			c-5.6,0.1-10.5-4.6-10.7-10.3c-0.1-5.7,4.6-10.6,10.3-10.7c5.7-0.1,10.6,4.7,10.7,10.3C411.2,562.5,406.3,567.5,400.7,567.7z
			 M420.4,561c-2.1,0-4.1-2.8-6.2-4.3c2-1.7,3.9-3.3,6.8-5.7c2.5,2.6,4.3,4.4,6.1,6.2C424.9,558.6,422.7,561.1,420.4,561z
			 M434.5,539.1c-0.1,5.7-2.1,7-7.1,4.6c-14-6.7-28.5-7.8-43.4-3.9c-3.8,1-7.5,2.8-11.1,4.4c-4,1.8-6.5,0.5-6.8-3.9
			c-0.2-2.5-0.1-5,0.2-7.5c1-8.3,5-13.8,13.6-16.4c13.2-3.9,26.3-4.4,39.4-0.5c12.1,3.7,15,7.8,15.2,20.6
			C434.5,537.5,434.5,538.3,434.5,539.1z"/>
		<path class="st0" d="M363.4,585.1c-8.5-0.8-17.6-1.5-26.7-2.5c-2.9-0.3-4.9,0.1-7.1,2.2c-1.9,1.9-3.8,3.7-5.8,5.5l-6.9-0.3
			c2.6-2.3,5.2-5,7.3-8.4c-11.8-1.1-22.1-2-32.4-2.9c-36.6-3.2-73.3-6.5-109.9-9.6c-34.5-2.9-69-5.5-103.4-8.3
			c-6.8-0.5-13.8-0.3-18.3-6.5c99.3,5,198.7,10,297.2,15C359.7,575.3,361.5,580.1,363.4,585.1z"/>
		<path class="st0" d="M359.6,544.1v8.4c-5.9,0-11.3,0.2-16.8,0c-19.5-0.7-39.1-1.4-58.6-2.1c-1.3-0.1-2.7-0.1-4-0.4
			c-0.6-0.2-1.4-1.1-1.4-1.6c0-0.5,0.8-1.3,1.5-1.6c0.9-0.3,2-0.4,3-0.4c24.4-0.9,48.7-1.7,73.1-2.5
			C357.3,543.8,358.3,544,359.6,544.1z"/>
		<path class="st0" d="M510.8,546.4c-0.9,1.3-1.7,2.6-2.4,4c-22.3,1-44.6,2.1-67.2,3.1c-0.2-2.1-0.3-3.6-0.3-5c0-1.5,0.1-3,0.2-5.3
			C464.5,544.3,487.7,545.3,510.8,546.4z"/>
		<path class="st0" d="M522.2,549.7c-0.3,0-0.7,0-1,0c-4.2,0.2-8.5,0.4-12.7,0.6c0.7-1.4,1.5-2.7,2.4-4c3.7,0.2,7.5,0.3,11.3,0.5
			c0,0.5,0,1.1,0.1,1.6C522.1,548.9,522.1,549.3,522.2,549.7z"/>
		<path class="st0" d="M403.3,594.3l-5.4-0.3c0-3.1,0-6.2,0.2-9.2c0.1-1.4,1.7-2.7,2.7-4.1c0.9,1.3,2.4,2.5,2.4,3.9
			C403.3,587.8,403.3,591,403.3,594.3z"/>
	</g>
	<g>
		<path class="st0" d="M760.1,569.9c0,0.3,0,0.5,0,0.8c5.4,0.2,10.8,0.4,16.2,0.6c1.7,0.1,4.3,0.2,7.2,1.3c4.2,1.6,8.5,5.7,9.1,11.4
			c0.1-0.6,0.1-1.1,0.1-1.6c-0.1-3.7,1.1-5.5,5.2-5.4c4,0.1,5.5,1.7,5.1,5.5c-0.4,4,1.3,5.8,5.5,5.4c3.1-0.3,6.4,0,9.5-0.1
			c9.9-0.4,17.1-7.5,17.2-17.3c0.2-13,0.2-26.1,0-39.2c-0.2-13.6-11.5-24.6-25.1-25.1c-2.7-0.1-5.3,0-9.7,0v-38.7
			c0-1.7,0.2-3.4-0.2-5c-0.3-1.2-1.6-2.1-2.4-3.1c-0.8,1.1-2.2,2.1-2.3,3.2c-0.4,7.7-0.6,15.4-0.7,23.1c-0.1,6.7,0,13.3,0,20.5
			c-3.3,0-5.7,0-8.2,0c-14.6,0.3-26.1,11.7-26.3,26.2C760,544.7,760,557.3,760.1,569.9z M812.5,555.4c1.9-1.5,3.8-4.2,5.7-4.2
			c2.4,0,4.8,2.3,7.2,3.6c-1.6,1.9-3.3,3.7-5.8,6.6C816.7,558.8,814.6,557.1,812.5,555.4z M787.3,555.2c0.1-5.6,5.1-10.4,10.7-10.3
			c5.7,0.1,10.4,5,10.3,10.7c-0.1,5.7-5,10.5-10.7,10.3C792.1,565.8,787.2,560.7,787.3,555.2z M771.2,555.4c1.8-1.8,3.6-3.6,6.1-6.2
			c2.8,2.4,4.8,4.1,6.8,5.7c-2.1,1.5-4.1,4.3-6.2,4.3C775.7,559.3,773.4,556.8,771.2,555.4z M763.8,534.9c0.2-12.8,3.1-17,15.2-20.6
			c13.2-4,26.2-3.5,39.4,0.5c8.6,2.6,12.6,8,13.6,16.4c0.3,2.5,0.3,5,0.2,7.5c-0.3,4.4-2.8,5.7-6.8,3.9c-3.6-1.6-7.3-3.4-11.1-4.4
			c-14.9-3.9-29.4-2.8-43.4,3.9c-5,2.4-7,1.1-7.1-4.6C763.8,536.5,763.8,535.7,763.8,534.9z"/>
		<path class="st0" d="M835,583.4c8.5-0.8,17.6-1.5,26.7-2.5c2.9-0.3,4.9,0.1,7.1,2.2c1.9,1.9,3.8,3.7,5.8,5.5l6.9-0.3
			c-2.6-2.3-5.2-5-7.3-8.4c11.8-1.1,22.1-2,32.4-2.9c36.6-3.2,73.3-6.5,109.9-9.6c34.5-2.9,69-5.5,103.4-8.3
			c6.8-0.5,13.8-0.3,18.3-6.5c-99.3,5-198.7,10-297.2,15C838.7,573.6,836.9,578.3,835,583.4z"/>
		<path class="st0" d="M838.8,542.4v8.4c5.9,0,11.3,0.2,16.8,0c19.5-0.7,39.1-1.4,58.6-2.1c1.3-0.1,2.7-0.1,4-0.4
			c0.6-0.2,1.4-1.1,1.4-1.6c0-0.5-0.8-1.3-1.5-1.6c-0.9-0.3-2-0.4-3-0.4c-24.4-0.9-48.7-1.7-73.1-2.5
			C841,542,840.1,542.2,838.8,542.4z"/>
		<path class="st0" d="M687.6,544.6c0.9,1.3,1.7,2.6,2.4,4c22.3,1,44.6,2.1,67.2,3.1c0.2-2.1,0.3-3.6,0.3-5c0-1.5-0.1-3-0.2-5.3
			C733.8,542.5,710.7,543.6,687.6,544.6z"/>
		<path class="st0" d="M676.2,547.9c0.3,0,0.7,0,1,0c4.2,0.2,8.5,0.4,12.7,0.6c-0.7-1.4-1.5-2.7-2.4-4c-3.7,0.2-7.5,0.3-11.3,0.5
			c0,0.5,0,1.1-0.1,1.6C676.2,547.2,676.2,547.5,676.2,547.9z"/>
		<path class="st0" d="M795.1,592.5l5.4-0.3c0-3.1,0-6.2-0.2-9.2c-0.1-1.4-1.7-2.7-2.7-4.1c-0.9,1.3-2.4,2.5-2.4,3.9
			C795,586,795,589.2,795.1,592.5z"/>
	</g>
	<g>
		<path class="st0" d="M595.4,529.9c0-19.5,0-38,0-56.5c0-2.4-0.4-5,0.3-7.3c0.5-1.7,2.3-3.1,3.5-4.6c1.2,1.6,3.2,3.1,3.3,4.7
			c0.6,11.2,0.8,22.4,1,33.7c0.1,9.7,0,19.4,0,30c4.8,0,8.4-0.1,12,0c21.3,0.4,38.2,17.1,38.4,38.3c0.3,18.3,0.2,36.6,0,55
			c-0.1,13.6-9.6,24.7-22.9,26.1c-7.7,0.8-15.5,0.1-23.6,0.1c-0.5-3.5-1.1-5.9-1-8.2c0.2-5.4-1.5-8-7.5-7.9c-5.9,0.1-8,2.5-7.4,8
			c0.6,5.9-1.9,8.5-8,7.9c-4.6-0.4-9.3,0-13.9-0.2c-14.4-0.6-24.9-10.9-25.1-25.3c-0.3-19.1-0.3-38.1,0.1-57.2
			c0.3-19.8,16.7-35.9,36.7-36.6C585,529.8,588.9,529.9,595.4,529.9z M648.6,572c-0.3-18.7-4.5-24.7-22.2-30.1
			c-19.2-5.8-38.2-5.1-57.5,0.7c-12.5,3.7-18.4,11.7-19.9,23.9c-0.4,3.6-0.5,7.3-0.2,10.9c0.4,6.4,4,8.3,9.9,5.7
			c5.3-2.3,10.6-5,16.2-6.4c21.7-5.7,42.9-4.1,63.4,5.6c7.3,3.5,10.2,1.6,10.3-6.7C648.6,574.5,648.6,573.2,648.6,572z M599.3,617.3
			c8.1-0.2,15.3-7.6,15.1-15.6c-0.2-8.2-7.4-15.1-15.7-15c-8.3,0.1-15.2,7.3-15,15.6C583.9,610.6,591,617.5,599.3,617.3z M628.9,593
			c-4.2,3.5-7,5.9-9.9,8.4c3,2.2,6,6.2,9,6.3c3.2,0.1,6.5-3.6,9.8-5.6C635.2,599.4,632.6,596.8,628.9,593z M567.1,610.7
			c4.4-3.7,7.5-6.2,10.5-8.7c-2.8-2.2-5.6-6.1-8.4-6.1c-3.5,0.1-7,3.3-10.6,5.2C561,603.8,563.4,606.6,567.1,610.7z"/>
		<path class="st0" d="M652.2,643.5c3.1-7.9,6-15.4,9.2-23.7c143.9-7.2,288.9-14.5,434-21.7c0.3,0.4,0.6,0.7,0.9,1.1
			c-5.2,2.4-10.2,6.4-15.6,6.9c-84.4,7.5-168.8,14.7-253.2,21.8c-36.2,3.1-72.5,5.9-108.7,9c-2.1,0.2-4.1,1.7-6.1,2.6
			c1,1.8,1.6,4.1,3.1,5.4c7.5,6.5,15.2,12.8,24.2,20.2c1.1-1.7,1.9-4,3.4-4.8c3-1.6,7.4-4.2,9.4-3.1c3.6,2,8.1,6.4,8.2,9.9
			c0.2,11.4-1,22.9-2.8,34.3c-0.2,1.6-6.1,3.3-9.4,3.3c-2.3,0-6.2-2.2-6.7-4.2c-1.6-6.6-2.2-13.5-2.9-20.3
			c-0.9-8.7-8.9-11.9-13.8-17.2c-6.9-7.5-14.9-14-22.9-20.5c-2.4-2-6.4-3.3-9.5-3.1C679.2,640.3,665.4,642,652.2,643.5z"/>
		<path class="st0" d="M536,619.8c3.3,8.8,5.9,15.7,8.7,23.1c-12.5-1.2-25.7-2.2-38.9-3.7c-4.2-0.5-7.1,0.1-10.3,3.3
			c-10.2,9.9-21,19-31.1,28.9c-2.6,2.6-4.2,6.9-5,10.6c-1.4,6.2-1.3,12.8-3.1,18.9c-0.6,1.9-4.9,3.4-7.8,3.8c-3.3,0.5-8,1.6-8.7-3.8
			c-1.1-9-1.8-18.1-2.7-27.1c-0.8-7.5,1-14.8,8.5-16.6c4.2-1,9.6,3.1,15.8,5.3c7.2-6.9,18.6-12.6,26.2-24.8
			c-17.3-1.6-32.2-3-47.2-4.3c-53.5-4.7-107-9.5-160.5-14c-50.3-4.2-100.7-8.1-151-12.1c-9.9-0.8-20.2-0.4-26.7-9.4
			C247,605.2,392.2,612.5,536,619.8z"/>
		<path class="st0" d="M539.2,595.2c-8.5,0-16.6,0.2-24.5,0c-28.5-0.9-57-2.1-85.5-3.1c-1.9-0.1-3.9-0.1-5.8-0.6
			c-0.9-0.2-2.1-1.5-2.1-2.3c0-0.8,1.2-1.9,2.1-2.3c1.3-0.5,2.9-0.6,4.3-0.6c35.6-1.3,71.2-2.5,106.8-3.7c1.4,0,2.8,0.3,4.7,0.4
			C539.2,587,539.2,590.8,539.2,595.2z"/>
		<path class="st0" d="M776.6,591.1c-39.2,1.8-78.4,3.7-118.1,5.5c-0.2-3.1-0.5-5.2-0.5-7.3c0-2.2,0.2-4.3,0.3-7.7
			c39.6,1.8,78.9,3.7,118.1,5.5C776.4,588.4,776.5,589.8,776.6,591.1z"/>
		<path class="st0" d="M602.9,663c7.1,0.2,8.1,5.1,7.4,10.6c-0.7,5.3,2.7,11.6-4,15.8c-1.3,0.8,0.2,5.3-0.8,7.6
			c-1,2.3-3.3,5.3-5.4,5.6c-2.2,0.4-7-2.1-6.9-3.2c0.3-9.3-8-16.5-5.8-26.4c1.1-5,0.9-9.7,7.7-10c0-7.1-0.3-13.9,0.2-20.6
			c0.2-2.1,2.5-4,3.9-5.9c1.2,1.9,3.4,3.7,3.6,5.6C603.2,648.8,602.9,655.6,602.9,663z"/>
	</g>
</g>
<g>
	<g>
		<path class="st0" d="M477.2,920.9c1.7,3.7,2.6,8.1,2.6,13.1c0,2.5-0.4,5.6-1.1,9.1c-0.8,3.7-2.5,7.6-5.2,11.4
			c-4.9,6.8-11.9,11.7-20.8,14.7c-8.7,2.9-19.1,4.4-31,4.4c-4.7,0-9.9-0.3-15.3-0.9c-5.4-0.6-10.3-1.5-14.4-2.6
			c-5.9-1.4-11-3.3-15.2-5.5c-4.2-2.2-7.7-4.4-10.5-6.7c-2.8-2.3-5.1-4.4-6.7-6.5c-1.6-2-2.8-3.6-3.6-4.9l-1.9-3l20-8.3l1.4,1.8
			c0.8,0.9,1.6,1.8,2.6,2.7c1,0.9,2.6,2.1,4.6,3.5c5.8,4,12.1,6.7,18.9,8.2c7,1.5,14.1,2.2,21.3,2.2c11.8,0,20.8-1.9,26.8-5.7
			c5.6-3.6,8.4-8.1,8.4-14c0-3.2-0.8-5.5-2.3-7.3c-1.7-1.9-4.2-3.4-7.3-4.5c-3.4-1.2-7.4-2-12-2.5c-4.9-0.5-10-1.1-15.5-1.6
			c-7-0.6-12.9-1.2-17.8-1.7c-5-0.5-9.4-1.1-13-1.9c-3.7-0.8-6.9-1.8-9.6-3.1c-2.7-1.3-5.3-3-7.6-5.1c-3.8-3.6-6.3-7.3-7.4-11.2
			c-1-3.6-1.5-6.9-1.5-9.8c0-5.8,1.2-10.8,3.6-15c2.3-4.1,5.3-7.5,9-10.1c3.6-2.6,7.6-4.7,12-6.1c4.2-1.4,8.3-2.4,12.3-3
			c4-0.6,7.7-1.1,11-1.2c3.3-0.2,5.9-0.3,7.6-0.3c8.1,0,16.1,0.8,23.9,2.4c8,1.6,15.5,4.8,22.4,9.4c2.9,2,5.3,4,7,5.8
			c1.7,1.8,3.4,3.9,5,6.2l2.2,3.1l-19.8,8.1l-4.5-4.5c-0.8-0.8-1.8-1.6-3-2.4c-4.8-3.4-10-5.7-15.4-6.9c-5.7-1.3-11.6-1.9-17.4-1.9
			c-4.4,0-9.1,0.3-13.9,1c-4.7,0.6-8.6,1.7-11.7,3.3c-3.3,1.6-5.6,3.5-6.6,5.5c-1.1,2.1-1.7,4.2-1.7,6c0,2.5,0.8,4.7,2.6,6.6
			c1.6,1.8,3.5,3,6.1,3.6c3,0.8,7.1,1.4,12.2,1.9c5.1,0.5,10.2,1,15.1,1.4c5,0.4,10.2,0.9,15.3,1.4c2.4,0.2,5,0.5,7.4,0.9
			s4.9,0.8,7.4,1.4c3.2,0.8,6.4,1.9,9.7,3.4c3.4,1.5,6.5,3.6,9.2,6.1C473.3,914,475.6,917.2,477.2,920.9z"/>
	</g>
	<g>
		<path class="st0" d="M591.4,922.4c0.9-0.2,1.9-0.5,3-0.7c3.6-0.9,7.3-2.6,10.9-5c3.7-2.5,6.9-5.9,9.6-10.3
			c2.7-4.5,4.1-10.4,4.1-17.6c0-3.6-0.4-6.9-1.1-9.8c-0.7-2.8-1.7-5.3-2.9-7.5c-1.1-2.1-2.4-3.9-3.6-5.4c-1.2-1.4-2.3-2.6-3.4-3.5
			c-2.7-2.4-5.5-4.3-8.5-5.6c-2.8-1.2-5.7-2.2-8.6-2.8c-2.9-0.6-5.7-1-8.6-1.2c-2.7-0.2-5.4-0.2-7.9-0.2h-79.3v118.3H517V926h49.8
			l38,44.8h28.8L591.4,922.4z M569.4,906.8h-52.5v-34.7h58.7c1.7,0,3.5,0,5.4,0.2c1.7,0.1,3.3,0.4,4.9,0.8c1.5,0.5,2.9,1.1,4.2,2.1
			c1.3,0.9,2.4,2.2,3.5,3.9c1.9,2.9,2.8,6.3,2.8,10.3c0,1.7-0.2,3.6-0.7,5.4c-0.4,1.7-1.2,3.2-2.5,4.7c-1.3,1.8-2.9,3.2-4.6,4.1
			c-1.9,1-3.8,1.8-5.9,2.3c-2.1,0.5-4.3,0.8-6.5,0.9C573.8,906.8,571.6,906.8,569.4,906.8z"/>
	</g>
	<g>
		<path class="st0" d="M731.9,951.8v19H636V951l1.7-0.8c3.5-1.7,7.5-3.6,11.9-5.8c4.4-2.1,9-4.5,13.8-7.2c4.8-2.6,9.7-5.4,14.5-8.4
			c4.8-2.9,9.4-6,13.7-9.2c2-1.5,4-3,5.9-4.7c1.8-1.5,3.5-3.3,4.9-5.2c1.4-1.9,2.6-4,3.5-6.4c0.9-2.2,1.3-4.8,1.3-7.6
			c0-3.6-0.6-6.8-1.9-9.5c-1.3-2.8-3.1-5.2-5.3-7.1c-2.2-2-4.9-3.5-8-4.5c-3.2-1.1-6.7-1.6-10.3-1.6c-4.1,0-7.7,0.6-10.9,1.9
			c-3.2,1.2-5.8,2.8-7.8,4.8c-1.5,1.5-2.8,3.2-3.7,4.9c-0.9,1.7-1.6,3.5-2,5.3c-0.4,1.9-0.7,3.9-0.9,5.8c-0.2,2-0.3,4-0.4,5.9
			l-0.2,3.3l-21.4-3.1l0.2-2.8c0.2-3.2,0.6-6.9,1.2-10.8c0.6-4.3,2.5-8.8,5.4-13.3c1.7-2.7,3.9-5.4,6.6-7.9c2.7-2.6,5.7-4.8,9.2-6.7
			c3.4-1.9,7.3-3.5,11.6-4.6c4.3-1.1,8.9-1.7,13.8-1.7c7.7,0,14.5,1.3,20.4,3.7c5.8,2.5,10.8,5.7,14.7,9.6c3.9,3.9,6.9,8.5,8.9,13.4
			c1.9,4.9,2.9,9.9,2.9,14.7c0,5.8-1.2,11.4-3.6,16.7c-2.4,5.2-5.6,9.9-9.7,13.9c-2.7,2.7-6,5.4-9.9,8.1c-3.8,2.6-7.9,5.2-12,7.7
			c-4.1,2.5-8.4,4.8-12.6,6.9c-2.3,1.2-4.6,2.3-6.7,3.3H731.9z"/>
	</g>
	<g>
		<path class="st0" d="M844.4,951.8v19h-95.8V951l1.7-0.8c3.5-1.7,7.5-3.6,11.9-5.8c4.4-2.1,9-4.5,13.8-7.2
			c4.8-2.6,9.7-5.4,14.5-8.4c4.8-2.9,9.4-6,13.6-9.2c2-1.5,4-3,5.9-4.7c1.8-1.5,3.5-3.3,4.9-5.2c1.4-1.9,2.6-4,3.5-6.4
			c0.9-2.2,1.3-4.8,1.3-7.6c0-3.6-0.7-6.8-2-9.5c-1.3-2.8-3.1-5.2-5.3-7.1c-2.2-2-4.9-3.5-8-4.5c-3.2-1.1-6.7-1.6-10.3-1.6
			c-4.1,0-7.7,0.6-10.9,1.9c-3.2,1.2-5.8,2.8-7.8,4.8c-1.5,1.5-2.8,3.2-3.7,4.9c-0.9,1.7-1.6,3.5-2,5.3c-0.5,1.9-0.8,3.9-0.9,5.8
			c-0.2,2-0.3,4-0.4,5.9l-0.2,3.3l-21.4-3.1l0.2-2.8c0.2-3.2,0.6-6.9,1.2-10.8c0.6-4.3,2.5-8.8,5.5-13.3c1.7-2.7,3.9-5.4,6.6-7.9
			c2.7-2.6,5.7-4.8,9.2-6.7c3.4-1.9,7.3-3.5,11.6-4.6c4.3-1.1,8.9-1.7,13.8-1.7c7.7,0,14.5,1.3,20.4,3.7c5.8,2.5,10.8,5.7,14.7,9.6
			c3.9,3.9,6.9,8.5,8.9,13.4c1.9,4.9,2.9,9.9,2.9,14.7c0,5.8-1.2,11.4-3.6,16.7c-2.4,5.2-5.6,9.9-9.7,13.9c-2.7,2.7-6,5.4-9.9,8.1
			c-3.8,2.6-7.9,5.2-12,7.7c-4.2,2.5-8.4,4.8-12.6,6.9c-2.3,1.2-4.6,2.3-6.6,3.3H844.4z"/>
	</g>
</g>
<g>
	<g>
		<path class="st0" d="M474.4,303.5c1.7,3.7,2.6,8.1,2.6,13.1c0,2.6-0.4,5.6-1.1,9.1c-0.8,3.7-2.5,7.6-5.2,11.4
			c-4.9,6.8-11.9,11.7-20.9,14.7c-8.6,2.9-19.1,4.4-31,4.4c-4.8,0-10-0.3-15.3-0.9c-5.4-0.6-10.3-1.5-14.4-2.6
			c-5.9-1.4-11-3.3-15.3-5.5c-4.2-2.2-7.7-4.4-10.5-6.6c-2.8-2.2-5-4.4-6.7-6.5c-1.7-2.1-2.9-3.7-3.6-4.9l-1.9-3l20-8.3l1.4,1.7
			c0.8,1,1.7,1.9,2.6,2.8c1,0.9,2.5,2.1,4.6,3.5c5.8,4,12.1,6.7,18.9,8.2c6.9,1.5,14.1,2.3,21.3,2.3c11.8,0,20.8-1.9,26.8-5.7
			c5.6-3.6,8.4-8.2,8.4-14c0-3.1-0.8-5.6-2.3-7.3c-1.7-1.9-4.1-3.4-7.3-4.5c-3.4-1.2-7.4-2-12-2.5c-4.7-0.5-9.7-1-15.5-1.6
			c-7-0.6-12.9-1.2-17.8-1.7c-5.2-0.5-9.4-1.1-13-1.9c-3.6-0.8-6.9-1.8-9.6-3.1c-2.7-1.3-5.3-3-7.6-5.1c-3.8-3.6-6.3-7.3-7.4-11.2
			c-1-3.6-1.5-6.9-1.5-9.8c0-5.8,1.2-10.8,3.6-15c2.3-4.1,5.4-7.5,9-10.1c3.6-2.6,7.6-4.6,11.9-6.1c4.2-1.4,8.4-2.4,12.4-3
			c3.9-0.6,7.6-1.1,11-1.2c3.8-0.2,6-0.2,7.6-0.2c8,0,16.1,0.8,23.9,2.4c8,1.6,15.5,4.8,22.4,9.5c3,2.1,5.3,4,7,5.8
			c1.7,1.8,3.4,3.9,5,6.2l2.2,3.1l-19.8,8l-1.4-1.4c-0.8-0.8-1.6-1.6-2.2-2.2l-0.9-0.9c-0.8-0.8-1.8-1.6-3-2.4
			c-4.8-3.4-10-5.7-15.5-6.9c-5.7-1.3-11.5-1.9-17.4-1.9c-4.4,0-9.1,0.3-14,1c-4.7,0.6-8.6,1.8-11.7,3.3c-3.3,1.6-5.6,3.5-6.6,5.5
			c-1.1,2.2-1.7,4.2-1.7,6c0,2.5,0.8,4.7,2.6,6.6c1.6,1.8,3.5,3,6.1,3.6c3,0.8,7.1,1.4,12.2,1.9c5.4,0.6,10.3,1,15.1,1.4
			c4.8,0.4,9.8,0.9,15.3,1.4c2.6,0.2,5.1,0.5,7.4,0.9c2.4,0.4,4.9,0.9,7.4,1.4c3.2,0.8,6.4,1.9,9.7,3.4c3.3,1.5,6.4,3.5,9.2,6.1
			C470.4,296.7,472.7,299.8,474.4,303.5z"/>
	</g>
	<g>
		<path class="st0" d="M588.5,305c0.9-0.2,1.9-0.5,3-0.7c3.6-0.9,7.3-2.6,10.9-5c3.7-2.5,6.9-5.9,9.6-10.3
			c2.7-4.5,4.1-10.4,4.1-17.6c0-3.6-0.4-6.9-1.1-9.7c-0.8-2.8-1.7-5.4-2.9-7.5c-1.1-2.1-2.4-3.9-3.6-5.4c-1.2-1.4-2.3-2.6-3.4-3.5
			c-2.7-2.4-5.5-4.3-8.4-5.6c-2.8-1.2-5.7-2.2-8.6-2.8c-2.8-0.6-5.6-1-8.6-1.2c-2.7-0.2-5.3-0.2-7.9-0.2h-79.3v118.3h21.9v-44.8H564
			l38,44.8h28.8L588.5,305z M514,289.4v-34.7h58.7c1.9,0,3.6,0,5.4,0.2c1.7,0.1,3.3,0.4,4.9,0.8c1.5,0.4,2.9,1.1,4.2,2
			c1.2,0.9,2.4,2.2,3.5,3.9c1.9,2.9,2.8,6.3,2.8,10.3c0,1.8-0.2,3.6-0.7,5.4c-0.4,1.7-1.2,3.2-2.5,4.8c-1.3,1.8-2.9,3.2-4.6,4.1
			c-1.9,1-3.9,1.8-5.9,2.3c-2.2,0.5-4.4,0.8-6.6,0.9c-2.2,0.1-4.5,0.2-6.8,0.2H514z"/>
	</g>
	<g>
		<path class="st0" d="M729,334.4v19h-95.8v-19.8l1.7-0.8c3.5-1.7,7.5-3.6,11.9-5.8c4.4-2.1,9-4.5,13.8-7.2
			c4.8-2.6,9.7-5.4,14.5-8.4c4.8-2.9,9.4-6,13.7-9.2c2-1.5,4-3,5.9-4.7c1.8-1.5,3.5-3.3,4.9-5.2c1.4-1.9,2.6-4,3.5-6.4
			c0.9-2.2,1.3-4.8,1.3-7.6c0-3.6-0.6-6.8-1.9-9.5c-1.3-2.8-3.1-5.2-5.3-7.1c-2.2-2-4.9-3.5-8-4.5c-3.2-1.1-6.7-1.6-10.3-1.6
			c-4.1,0-7.7,0.6-10.9,1.9c-3.2,1.2-5.8,2.8-7.8,4.8c-1.5,1.5-2.8,3.2-3.7,4.9c-0.9,1.7-1.6,3.5-2,5.3c-0.4,1.9-0.7,3.9-0.9,5.8
			c-0.2,2-0.3,4-0.4,5.9l-0.2,3.3l-21.4-3.1l0.2-2.8c0.2-3.2,0.6-6.9,1.2-10.8c0.6-4.3,2.5-8.8,5.4-13.3c1.7-2.7,3.9-5.4,6.6-7.9
			c2.7-2.6,5.7-4.8,9.2-6.7c3.4-1.9,7.3-3.5,11.6-4.6c4.3-1.1,8.9-1.7,13.8-1.7c7.7,0,14.5,1.3,20.4,3.7c5.8,2.5,10.8,5.7,14.7,9.6
			c3.9,3.9,6.9,8.5,8.9,13.4c1.9,4.9,2.9,9.9,2.9,14.7c0,5.8-1.2,11.4-3.6,16.7c-2.4,5.2-5.6,9.9-9.7,13.9c-2.7,2.7-6,5.4-9.9,8.1
			c-3.8,2.6-7.9,5.2-12,7.7c-4.1,2.5-8.4,4.8-12.6,6.9c-2.3,1.2-4.6,2.3-6.7,3.3H729z"/>
	</g>
	<g>
		<path class="st0" d="M843.9,273c-2.3-7.3-5.7-13.8-10.1-19.3c-4.5-5.6-10.1-10-16.7-13.2c-6.4-3-13.8-4.6-22-4.6h-0.9
			c-8.9,0.1-16.8,1.9-23.4,5.4c-6.6,3.5-12.1,8.1-16.3,13.7c-4.2,5.6-7.4,11.9-9.5,18.9c-2,6.9-3.1,14.1-3.1,21.2
			c0,8.1,1.1,15.9,3.2,23.2c2.2,7.4,5.5,13.9,9.8,19.5c4.4,5.6,9.9,10,16.4,13.3c6.5,3.3,14.3,4.9,23,4.9c7.9,0,15.2-1.4,21.7-4.2
			c6.5-2.8,12.2-6.9,16.8-12.1c4.6-5.2,8.2-11.6,10.7-18.9c2.5-7.3,3.7-15.5,3.7-24.3C847.3,288.1,846.1,280.2,843.9,273z
			 M794.6,337.1c-4.4,0-8.5-0.9-12.1-2.7c-3.7-1.8-6.9-4.4-9.7-7.8c-2.8-3.4-5-7.6-6.6-12.5c-1.6-5-2.4-10.7-2.4-17.1
			c0-2.4,0.1-5.2,0.4-8.1c0.3-2.9,0.8-5.7,1.5-8.6c0.8-2.8,1.8-5.7,3.2-8.5c1.3-2.7,3-5.3,5.2-7.6c2.8-3.2,5.9-5.5,9.5-7
			c3.6-1.5,7.2-2.4,10.7-2.5c0.3,0,0.6,0,1,0c2.9,0,5.5,0.4,7.8,1.1c2.6,0.9,5,2,7.1,3.4c2,1.4,3.8,2.9,5.2,4.5
			c1.5,1.7,2.7,3.3,3.5,4.8c2.1,3.4,3.7,7.6,4.8,12.2c1.2,4.7,1.7,9.9,1.7,15.5c0,6.3-0.8,12.5-2.5,18.4c-1.6,5.7-4.6,10.7-8.8,14.8
			c-2.7,2.5-5.7,4.4-9,5.7C801.8,336.5,798.2,337.1,794.6,337.1z"/>
	</g>
</g>
<g>
	<path class="st0" d="M1131.6,80.7H68.7c-28.3,0-51.3,23-51.3,51.3v942.9c0,28.3,23,51.3,51.3,51.3h1062.9
		c28.3,0,51.3-22.9,51.3-51.3V132C1182.9,103.7,1159.9,80.7,1131.6,80.7z M1158.9,1074.9c0,15-12.2,27.3-27.3,27.3H68.7
		c-15,0-27.3-12.2-27.3-27.3V132c0-15,12.2-27.3,27.3-27.3h1062.9c15,0,27.3,12.2,27.3,27.3V1074.9z"/>
</g>
</svg>
