<?xml version="1.0" encoding="utf-8"?>
<!-- Generator: Adobe Illustrator 28.3.0, SVG Export Plug-In . SVG Version: 6.00 Build 0)  -->
<svg version="1.1" id="Layer_1" xmlns="http://www.w3.org/2000/svg" xmlns:xlink="http://www.w3.org/1999/xlink" x="0px" y="0px"
	 viewBox="0 0 1200 1200" style="enable-background:new 0 0 1200 1200;" xml:space="preserve">
<style type="text/css">
	.st0{fill:#FFFFFF;}
</style>
<g>
	<g>
		<path class="st0" d="M979.3,835.4c-24.1-24.1-59-33.9-92.1-25.8L680.5,594l0,0c-2.6-5.3-1.2-10,4.6-16
			c20.4-21.3,39.9-43.3,59.5-65.3c6.6-7.3,15-14.7,17.3-23.4c1.9-7.4-3.7-16.7-6.4-26.9c12.3,11.3,23.8,21.7,35.1,32.1
			c1.9-2,3.8-4,5.7-6c-13.6-9.2-27.1-18.3-40.7-27.3c1.8-1.6,3.6-3.1,5.4-4.7c2.3-7.8,4.5-15.4,7.8-26.3c-11.6,4-19.5,6.6-26.9,9.1
			c-9.6-9.9-18.3-19.2-27.1-28.4l-3.2,3.2c8.4,9.7,16.8,19.4,27.2,31.3c-26.1-11.3-26.5-11.8-48,6.2c-27.1,22.7-53.5,46.3-80.9,70.3
			c-1.6-1.3-3.1-2.7-4.7-4L389.5,311.3c8.1-33.1-1.7-68-25.8-92.1c-25-25-60.1-33.5-92.1-25.8l66.6,66.6l-15.2,56.5l-56.5,15.2
			L199.9,265c-8.1,33.1,1.7,68,25.8,92.1c24.1,24.1,59,33.9,92.1,25.8l206.8,215.5c1.7,9.1-0.8,18.2-7.8,29.4
			c-21.7,34.9-43.9,69.4-66.6,103.6c-7.4,11-16.8,20.8-25.8,31.8c-32-25.9-62.8-50.1-92.6-75.5c-9.3-8-16.8-8.5-25.8-1.3
			c-5.6,4.5-11,9.4-17.2,14.9c31.5,34.9,62.2,68.8,92.9,102.8c-6.3,9.1-11.6,16.8-17,24.6c0.5,0.5,1.1,1.1,1.7,1.5
			c7.9-5.4,15.8-10.7,24.2-16.5c33.9,31.4,67.6,62.6,101.1,93.6c27.2-24.4,27.5-26.7,6.7-52.5c-21.5-26.6-43-53.4-65.8-82
			c11.9-9.6,22.7-19.5,34.9-27.5c29.7-19.5,59.8-38.6,90.3-56.8c21.6-13,31.3-18,42.6-14.4l-0.3,0.3l215.5,206.8
			c-8.1,33.1,1.7,68,25.8,92.1c24.1,24.1,59,33.9,92.1,25.8l-66.6-66.6L882,876l56.5-15.2l66.6,66.6
			C1012.9,895.5,1004.3,860.3,979.3,835.4z M554.6,578.1c2.5,21.1-15,27.7-23.5,40.7l-4.9-4.3C535.7,602.3,545.1,590.3,554.6,578.1z
			 M524.7,687.6c-3.6,1.2-15.8-10.4-15-11.8c4.4-9.3,9.9-20.1,18.1-25c3.5-2,14.7,8.7,27.8,17.1C542,677,534.2,684.5,524.7,687.6z
			 M628.1,632.9c2.9-22.9,19.9-37.1,40.2-36.1C653.2,610.5,640.7,621.7,628.1,632.9z M617.1,528.2c9.2-8.4,18.1-20.3,29.1-22.6
			c18-3.8,34.1,7.4,41.2,23.7c4.4,10.3,4.3,24.7,0.7,35.6c-2.7,8.4-13.8,14.1-24.7,24.2c-7.8-26.9-19.1-44.7-43-51.1
			C618.5,537.5,615.9,529.3,617.1,528.2z M565.1,568.9c11-11.8,21.8-23.6,33.8-36.5c4.9,16.6-5.3,29.7-28.9,41.1
			C568.3,571.9,566.8,570.5,565.1,568.9z M582.6,671c-1.2-1.7-2.5-3.2-3.7-4.9l35.8-28.7c1.6,1.9,3.1,4,4.5,6
			C607.1,652.6,594.8,661.8,582.6,671z"/>
	</g>
</g>
<g>
	<path class="st0" d="M1133.9,77.5H71c-28.3,0-51.3,23-51.3,51.3v942.9c0,28.3,23,51.3,51.3,51.3h1062.9c28.3,0,51.3-23,51.3-51.3
		V128.7C1185.1,100.4,1162.2,77.5,1133.9,77.5z M1161.1,1071.6c0,15-12.2,27.3-27.3,27.3H71c-15,0-27.3-12.2-27.3-27.3V128.7
		c0-15,12.2-27.3,27.3-27.3h1062.9c15,0,27.3,12.2,27.3,27.3V1071.6z"/>
</g>
</svg>
