<svg width="840" height="342" viewBox="0 0 840 342" fill="none" xmlns="http://www.w3.org/2000/svg">
<g clip-path="url(#clip0_8_220)">
<path d="M627.19 292.518V262.679H634.735L642.664 274.444L650.635 262.679H658.181V292.518H651.317V273.336L642.706 285.954L634.053 273.336V292.518H627.19Z" fill="white"/>
<path d="M618.391 292.518L607.222 262.679H614.043L625.637 292.518H618.391ZM595.116 292.518L606.71 262.679H613.531L602.362 292.518H595.116ZM600.572 286.849V280.796H620.224V286.849H600.572Z" fill="white"/>
<path d="M571.154 292.518V262.679H582.877C585.036 262.679 586.955 263.105 588.631 263.958C590.308 264.782 591.615 265.947 592.553 267.453C593.519 268.931 594.003 270.636 594.003 272.568C594.003 274.501 593.519 276.22 592.553 277.727C591.587 279.233 590.251 280.412 588.546 281.265C586.869 282.089 584.937 282.501 582.749 282.501H578.017V292.518H571.154ZM587.353 292.518L580.617 280.668L585.775 276.874L595.196 292.518H587.353ZM578.017 276.192H582.663C583.459 276.192 584.17 276.036 584.795 275.723C585.42 275.41 585.903 274.984 586.244 274.444C586.614 273.876 586.798 273.251 586.798 272.568C586.798 271.517 586.401 270.65 585.605 269.968C584.838 269.286 583.814 268.945 582.536 268.945H578.017V276.192Z" fill="white"/>
<path d="M555.537 293.03C552.468 293.03 549.754 292.376 547.395 291.069C545.065 289.733 543.232 287.915 541.896 285.613C540.56 283.282 539.892 280.611 539.892 277.599C539.892 274.586 540.56 271.929 541.896 269.627C543.232 267.297 545.065 265.478 547.395 264.171C549.754 262.835 552.468 262.167 555.537 262.167C557.441 262.167 559.16 262.451 560.695 263.02C562.258 263.56 563.622 264.313 564.787 265.279C565.953 266.245 566.919 267.354 567.686 268.604L562.016 272.014C561.59 271.332 561.022 270.721 560.311 270.181C559.629 269.641 558.876 269.229 558.052 268.945C557.228 268.632 556.39 268.476 555.537 268.476C553.86 268.476 552.368 268.86 551.061 269.627C549.782 270.394 548.773 271.474 548.034 272.867C547.296 274.231 546.926 275.808 546.926 277.599C546.926 279.389 547.281 280.98 547.992 282.373C548.702 283.737 549.725 284.817 551.061 285.613C552.397 286.408 553.946 286.806 555.708 286.806C557.043 286.806 558.223 286.551 559.246 286.039C560.269 285.527 561.079 284.817 561.675 283.908C562.272 282.998 562.571 281.932 562.571 280.71L569.093 279.602C569.093 282.501 568.51 284.959 567.345 286.977C566.18 288.966 564.588 290.472 562.571 291.495C560.553 292.519 558.208 293.03 555.537 293.03ZM555.75 281.435V276.149H569.093V280.199L565.256 281.435H555.75Z" fill="white"/>
<path d="M523.524 293.03C520.454 293.03 517.74 292.376 515.382 291.069C513.023 289.733 511.176 287.915 509.84 285.613C508.504 283.282 507.836 280.625 507.836 277.641C507.836 274.629 508.504 271.972 509.84 269.67C511.176 267.339 513.009 265.521 515.339 264.213C517.698 262.878 520.397 262.21 523.438 262.21C526.479 262.21 529.165 262.878 531.495 264.213C533.854 265.521 535.701 267.339 537.037 269.67C538.372 271.972 539.04 274.629 539.04 277.641C539.04 280.625 538.372 283.282 537.037 285.613C535.729 287.915 533.911 289.733 531.58 291.069C529.25 292.376 526.564 293.03 523.524 293.03ZM523.524 286.721C525.2 286.721 526.678 286.337 527.957 285.57C529.236 284.803 530.23 283.737 530.941 282.373C531.651 280.98 532.007 279.403 532.007 277.641C532.007 275.851 531.637 274.274 530.898 272.91C530.159 271.517 529.15 270.437 527.872 269.67C526.593 268.874 525.115 268.476 523.438 268.476C521.762 268.476 520.284 268.874 519.005 269.67C517.726 270.437 516.717 271.517 515.978 272.91C515.239 274.274 514.87 275.851 514.87 277.641C514.87 279.403 515.239 280.98 515.978 282.373C516.717 283.737 517.74 284.803 519.048 285.57C520.355 286.337 521.847 286.721 523.524 286.721Z" fill="white"/>
<path d="M483.27 292.518V262.679H494.993C497.152 262.679 499.071 263.105 500.747 263.958C502.424 264.782 503.731 265.947 504.669 267.453C505.635 268.931 506.119 270.636 506.119 272.568C506.119 274.501 505.635 276.22 504.669 277.727C503.703 279.233 502.367 280.412 500.662 281.265C498.985 282.089 497.053 282.501 494.865 282.501H490.133V292.518H483.27ZM499.469 292.518L492.733 280.668L497.891 276.874L507.312 292.518H499.469ZM490.133 276.192H494.78C495.575 276.192 496.286 276.036 496.911 275.723C497.536 275.41 498.019 274.984 498.36 274.444C498.73 273.876 498.914 273.251 498.914 272.568C498.914 271.517 498.517 270.65 497.721 269.968C496.954 269.286 495.93 268.945 494.652 268.945H490.133V276.192Z" fill="white"/>
<path d="M458.79 292.518V262.679H470.513C472.673 262.679 474.591 263.119 476.268 264C477.944 264.853 479.252 266.046 480.19 267.581C481.156 269.087 481.639 270.849 481.639 272.867C481.639 274.828 481.17 276.59 480.232 278.153C479.323 279.687 478.044 280.895 476.396 281.776C474.747 282.657 472.857 283.098 470.726 283.098H465.653V292.518H458.79ZM465.653 276.789H470.556C471.778 276.789 472.758 276.433 473.497 275.723C474.236 274.984 474.605 274.032 474.605 272.867C474.605 271.702 474.207 270.764 473.412 270.053C472.644 269.315 471.621 268.945 470.342 268.945H465.653V276.789Z" fill="white"/>
<path d="M433.17 292.518V268.988H424.474V262.679H448.687V268.988H439.991V292.518H433.17Z" fill="white"/>
<path d="M409.743 293.03C406.674 293.03 403.96 292.376 401.601 291.069C399.242 289.733 397.395 287.915 396.059 285.613C394.724 283.282 394.056 280.625 394.056 277.641C394.056 274.629 394.724 271.972 396.059 269.67C397.395 267.339 399.228 265.521 401.558 264.213C403.917 262.878 406.617 262.21 409.658 262.21C412.698 262.21 415.384 262.878 417.714 264.213C420.073 265.521 421.92 267.339 423.256 269.67C424.592 271.972 425.26 274.629 425.26 277.641C425.26 280.625 424.592 283.282 423.256 285.613C421.949 287.915 420.13 289.733 417.8 291.069C415.469 292.376 412.784 293.03 409.743 293.03ZM409.743 286.721C411.42 286.721 412.897 286.337 414.176 285.57C415.455 284.803 416.45 283.737 417.16 282.373C417.871 280.98 418.226 279.403 418.226 277.641C418.226 275.851 417.856 274.274 417.118 272.91C416.379 271.517 415.37 270.437 414.091 269.67C412.812 268.874 411.334 268.476 409.658 268.476C407.981 268.476 406.503 268.874 405.224 269.67C403.945 270.437 402.937 271.517 402.198 272.91C401.459 274.274 401.089 275.851 401.089 277.641C401.089 279.403 401.459 280.98 402.198 282.373C402.937 283.737 403.96 284.803 405.267 285.57C406.574 286.337 408.066 286.721 409.743 286.721Z" fill="white"/>
<path d="M374.651 292.518V262.679H381.515V286.21H394.218V292.518H374.651Z" fill="white"/>
<path d="M363.701 292.518V262.679H370.564V292.518H363.701Z" fill="white"/>
<path d="M339.221 292.518V262.679H350.944C353.104 262.679 355.022 263.119 356.699 264C358.376 264.853 359.683 266.046 360.621 267.581C361.587 269.087 362.07 270.849 362.07 272.867C362.07 274.828 361.601 276.59 360.663 278.153C359.754 279.687 358.475 280.895 356.827 281.776C355.178 282.657 353.289 283.098 351.157 283.098H346.084V292.518H339.221ZM346.084 276.789H350.987C352.209 276.789 353.189 276.433 353.928 275.723C354.667 274.984 355.036 274.032 355.036 272.867C355.036 271.702 354.639 270.764 353.843 270.053C353.075 269.315 352.052 268.945 350.774 268.945H346.084V276.789Z" fill="white"/>
<path d="M304.749 292.518V262.679H316.472C318.632 262.679 320.55 263.105 322.227 263.958C323.903 264.782 325.211 265.947 326.149 267.453C327.115 268.931 327.598 270.636 327.598 272.568C327.598 274.501 327.115 276.22 326.149 277.727C325.182 279.233 323.847 280.412 322.141 281.265C320.465 282.089 318.532 282.501 316.344 282.501H311.612V292.518H304.749ZM320.948 292.518L314.213 280.668L319.371 276.874L328.791 292.518H320.948ZM311.612 276.192H316.259C317.054 276.192 317.765 276.036 318.39 275.723C319.015 275.41 319.499 274.984 319.84 274.444C320.209 273.876 320.394 273.251 320.394 272.568C320.394 271.517 319.996 270.65 319.2 269.968C318.433 269.286 317.41 268.945 316.131 268.945H311.612V276.192Z" fill="white"/>
<path d="M281.435 292.518V262.679H300.874V268.988H288.298V274.444H298.828V280.54H288.298V286.21H301.087V292.518H281.435Z" fill="white"/>
<path d="M258.121 292.518V262.679H277.56V268.988H264.984V274.444H275.514V280.54H264.984V286.21H277.773V292.518H258.121Z" fill="white"/>
<path d="M231.935 292.518V262.679H243.658C245.818 262.679 247.736 263.105 249.413 263.958C251.089 264.782 252.396 265.947 253.334 267.453C254.301 268.931 254.784 270.636 254.784 272.568C254.784 274.501 254.301 276.22 253.334 277.727C252.368 279.233 251.032 280.412 249.327 281.265C247.651 282.089 245.718 282.501 243.53 282.501H238.798V292.518H231.935ZM248.134 292.518L241.398 280.668L246.556 276.874L255.977 292.518H248.134ZM238.798 276.192H243.445C244.24 276.192 244.951 276.036 245.576 275.723C246.201 275.41 246.684 274.984 247.025 274.444C247.395 273.876 247.579 273.251 247.579 272.568C247.579 271.517 247.182 270.65 246.386 269.968C245.619 269.286 244.596 268.945 243.317 268.945H238.798V276.192Z" fill="white"/>
<path d="M223.135 292.518L211.967 262.679H218.787L230.382 292.518H223.135ZM199.86 292.518L211.455 262.679H218.276L207.107 292.518H199.86ZM205.317 286.849V280.796H224.969V286.849H205.317Z" fill="white"/>
<path d="M186.622 293.03C183.666 293.03 181.052 292.376 178.778 291.069C176.533 289.733 174.757 287.915 173.45 285.613C172.171 283.282 171.531 280.611 171.531 277.599C171.531 274.586 172.171 271.929 173.45 269.627C174.757 267.297 176.533 265.478 178.778 264.171C181.052 262.835 183.666 262.167 186.622 262.167C188.782 262.167 190.757 262.551 192.547 263.318C194.366 264.057 195.929 265.109 197.236 266.473C198.572 267.837 199.595 269.414 200.305 271.204L193.869 273.378C193.442 272.384 192.86 271.517 192.121 270.778C191.41 270.039 190.586 269.471 189.648 269.073C188.739 268.675 187.73 268.476 186.622 268.476C185.059 268.476 183.666 268.86 182.444 269.627C181.222 270.394 180.27 271.474 179.588 272.867C178.906 274.231 178.565 275.808 178.565 277.599C178.565 279.389 178.906 280.98 179.588 282.373C180.299 283.737 181.265 284.817 182.487 285.613C183.737 286.38 185.158 286.764 186.75 286.764C187.915 286.764 188.952 286.551 189.862 286.124C190.771 285.698 191.552 285.101 192.206 284.334C192.888 283.567 193.471 282.686 193.954 281.691L200.391 283.865C199.709 285.684 198.7 287.289 197.364 288.682C196.028 290.046 194.451 291.112 192.632 291.879C190.814 292.646 188.81 293.03 186.622 293.03Z" fill="white"/>
<path d="M76.1759 32.5705H170.813L132.638 133.078H38L76.1759 32.5705Z" fill="#F4641D" fill-opacity="0.2"/>
<path d="M96.2775 32.5705H190.915L152.739 133.078H58.1016L96.2775 32.5705Z" fill="#F4641D" fill-opacity="0.5"/>
<path d="M116.379 32.5705H211.017L172.841 133.078H78.2031L116.379 32.5705Z" fill="#F4641D"/>
<path d="M181.582 132.925L219.837 32.1488H288.785L279.552 56.6271H237.233L231.667 71.3141H264.772L255.398 95.7925H222.293L208.21 132.934H181.582V132.925Z" fill="white"/>
<path d="M339.393 132.925L339.075 32.1488H310.433L233.595 132.925H263.687L275.658 116.798H312.685L312.482 132.925H339.393ZM293.081 93.3358L313.322 66.065L312.977 93.3358H293.081Z" fill="white"/>
<path d="M378.076 135.232C373.085 135.232 368.508 134.534 364.338 133.146C360.168 131.759 356.608 129.885 353.657 127.535C350.706 125.184 348.585 122.498 347.313 119.475C346.032 116.453 345.741 113.307 346.439 110.046L374.754 104.143C374.719 106.547 375.417 108.465 376.839 109.905C378.262 111.345 380.798 112.061 384.438 112.061C386.549 112.061 388.493 111.699 390.277 110.983C392.062 110.267 393.608 109.18 394.925 107.74C396.241 106.3 397.098 104.621 397.504 102.703C397.814 101.263 397.822 100.087 397.531 99.177C397.239 98.2668 396.736 97.5245 395.994 96.9501C395.251 96.3757 394.288 95.9427 393.105 95.6511L380.745 92.1958C376.036 90.8526 372.316 88.7406 369.568 85.8597C366.821 82.9789 365.23 79.4088 364.798 75.1317C364.365 70.8634 365.133 66.0827 367.121 60.807C369.524 54.4709 372.943 49.0981 377.387 44.6796C381.831 40.27 387.176 36.8854 393.431 34.5259C399.687 32.1753 406.604 31 414.185 31C420.802 31 426.306 31.866 430.688 33.5892C435.07 35.3124 438.41 38.0077 440.707 41.6485C443.004 45.2982 444.215 49.9552 444.365 55.6109L416.128 61.8056C416.34 59.888 415.766 58.0852 414.397 56.4062C413.027 54.7272 410.518 53.8877 406.869 53.8877C404.661 53.8877 402.629 54.197 400.773 54.8244C398.909 55.4518 397.345 56.4062 396.055 57.7052C394.774 59.0043 393.917 60.6568 393.484 62.6716C393.14 64.3064 393.467 65.8176 394.465 67.2049C395.463 68.6012 397.089 69.6263 399.351 70.2979L410.766 73.4615C416.287 74.9991 420.29 77.2791 422.772 80.3013C425.246 83.3235 426.704 86.6374 427.137 90.234C427.57 93.8307 427.419 97.3566 426.686 100.812C424.972 108.871 421.677 115.446 416.809 120.536C411.932 125.626 406.136 129.346 399.395 131.697C392.654 134.048 385.551 135.223 378.059 135.223L378.076 135.232Z" fill="white"/>
<path d="M449.096 132.925L478.118 56.6183H449.617L458.849 32.14H542.339L533.107 56.6183H504.747L475.724 132.925H449.096Z" fill="white"/>
<path d="M669.044 148.872H750.167V249.38H629.558L608.021 197.69L669.044 148.872Z" fill="#F4641D"/>
<path d="M171.531 249.227L200.554 172.92H172.053L181.285 148.442H264.775L255.543 172.92H227.182L198.16 249.227H171.531Z" fill="white"/>
<path d="M340.474 165.727C339.07 160.345 335.969 156.13 331.145 153.054C326.33 149.979 320.084 148.45 312.406 148.45H271.527L233.272 249.227H259.9L272.022 217.264H281.572L287.677 249.227H317.619L309.305 213.181C309.384 213.154 309.455 213.128 309.535 213.093C316.32 210.309 322.257 206.421 327.346 201.428C332.435 196.435 336.19 190.726 338.619 184.293C341.252 177.294 341.87 171.099 340.474 165.727ZM311.832 180.988C311.275 183.577 310.162 185.76 308.492 187.536C306.822 189.312 304.764 190.629 302.325 191.495C299.887 192.361 297.175 192.794 294.206 192.794H281.395L288.958 172.778H303.492C306.76 172.778 309.093 173.521 310.506 175.005C311.92 176.499 312.362 178.487 311.832 180.988Z" fill="white"/>
<path d="M428.311 249.227L427.993 148.45H399.35L322.513 249.227H352.596L364.567 233.099H401.594L401.391 249.227H428.311ZM381.99 209.637L402.23 182.375L401.886 209.637H381.99Z" fill="white"/>
<path d="M472.874 250.959C463.756 250.959 456.149 249.156 450.053 245.56C443.957 241.963 439.734 236.899 437.375 230.369C435.016 223.838 434.751 216.309 436.562 207.764C438.276 199.705 441.377 191.999 445.865 184.655C450.353 177.312 455.866 170.79 462.404 165.073C468.942 159.364 476.178 154.875 484.12 151.614C492.054 148.353 500.35 146.718 508.982 146.718C517.039 146.718 523.772 148.115 529.178 150.889C534.585 153.673 538.676 157.535 541.468 162.483C544.251 167.432 545.647 173.07 545.647 179.397L518.329 186.016C518.135 182.853 517.463 180.166 516.297 177.957C515.131 175.748 513.479 174.069 511.323 172.92C509.167 171.771 506.455 171.188 503.195 171.188C498.592 171.188 494.148 172.195 489.881 174.21C485.614 176.225 481.735 178.911 478.236 182.269C474.738 185.627 471.778 189.392 469.357 193.572C466.937 197.743 465.267 201.993 464.348 206.315C463.491 210.344 463.509 213.87 464.401 216.892C465.293 219.915 466.972 222.265 469.454 223.944C471.928 225.623 475.135 226.463 479.067 226.463C482.998 226.463 486.85 225.747 490.323 224.307C493.795 222.866 497.037 220.922 500.05 218.474C503.062 216.026 505.916 213.216 508.602 210.053L531.051 219.552C526.254 225.888 520.759 231.412 514.574 236.113C508.39 240.814 501.764 244.464 494.687 247.053C487.61 249.642 480.33 250.941 472.847 250.941L472.874 250.959Z" fill="white"/>
<path d="M598.506 194.394L620.637 249.227H588.257L574.201 213.057L565.472 219.773L554.287 249.227H527.659L565.914 148.45H592.542L579.952 181.615L622.625 148.45H658.318L598.506 194.394Z" fill="white"/>
<path d="M818.829 194.577C821.211 196.576 821.211 200.24 818.829 202.238L681.924 317.106C678.67 319.835 673.71 317.522 673.71 313.275L673.71 83.5406C673.71 79.2935 678.67 76.9804 681.924 79.7102L818.829 194.577Z" fill="#F4641D"/>
</g>
<defs>
<clipPath id="clip0_8_220">
<rect width="840" height="342" fill="white"/>
</clipPath>
</defs>
</svg>
