<?xml version="1.0" encoding="UTF-8"?><svg id="Layer_1" xmlns="http://www.w3.org/2000/svg" viewBox="0 0 1200 227"><defs><style>.cls-1{fill:#221f1f;}.cls-1,.cls-2,.cls-3,.cls-4{stroke-width:0px;}.cls-2,.cls-3{opacity:.99;}.cls-2,.cls-4{fill:#fff;}.cls-3{fill:#808285;}</style></defs><path class="cls-2" d="M339.12,16.16l-8.35,19.47-59.82,139.76c-2.19,5.14-7.25,8.47-12.84,8.47H46.34l8.35-19.47,46.75-109.21,1.48-3.47,10.63-24.78c.2-.45.37-.85.51-1.19l.2-.45c.17-.43.28-.68.34-.8,2.22-5.06,7.22-8.33,12.76-8.33h211.77Z"/><path class="cls-3" d="M126.83,16.16c-5.54,0-10.54,3.26-12.76,8.32-.06.11-.17.37-.34.8l-.2.45c-.14.34-.31.73-.52,1.2l-10.62,24.77-1.48,3.47-46.74,109.22-8.35,19.46h-29.16l8.35-19.46,46.74-109.22,1.48-3.47,10.63-24.77c.19-.47.36-.86.5-1.2l.2-.45c.17-.42.28-.69.34-.8,2.22-5.06,7.21-8.32,12.76-8.32h29.15Z"/><path class="cls-1" d="M161.47,48.69v9.72c-3.64-1.56-6.76-2.34-9.36-2.33-1.93,0-3.54.39-4.82,1.18-1.27.78-2.07,1.68-2.41,2.7-.33,1.02-.49,3.72-.49,8.12v10.43s16.11-.02,16.11-.02v8.58s-16.11.02-16.11.02l.02,68.6h-9.93s-.07-68.59-.07-68.59h-10.15s0-8.57,0-8.57h10.15s-.01-12.07-.01-12.07c0-5.54.49-9.48,1.51-11.85,1.01-2.37,2.73-4.27,5.17-5.71,2.44-1.45,5.39-2.17,8.83-2.17,3.23,0,7.08.65,11.57,1.97Z"/><path class="cls-1" d="M173.81,48.68h9.93s.11,106.97.11,106.97h-9.93s-.11-106.97-.11-106.97Z"/><path class="cls-1" d="M196.12,78.45h10.5s26.59,59.39,26.59,59.39l25.7-59.46h10.57s-45.94,105.45-45.94,105.45h-10.48s14.81-34.09,14.81-34.09l-31.74-71.3Z"/><path class="cls-4" d="M384.03,47.79l46.49,108.78-25.46.03-10.04-25.9-47.28.05-9.67,25.92-24.25.03,45.96-108.88,24.26-.03ZM355.13,111.33l32.44-.03-16.56-41.82-15.88,41.85Z"/><path class="cls-4" d="M486.68,47.9c35.02,0,51.23,17.88,51.23,56.38,0,19.7-5.45,33.96-16.68,42.9-10.61,8.49-20.77,9.55-33.95,9.55h-50.48V47.9h49.87ZM459.7,66.85v70.93h26.53c20.31,0,26.67-8.63,26.67-35.46s-6.37-35.46-26.67-35.46h-26.53Z"/><polygon class="cls-4" points="536.39 47.9 562.31 47.9 595.05 128.99 628.54 47.9 652.95 47.9 607.48 156.73 583.83 156.73 536.39 47.9"/><path class="cls-4" d="M710.15,47.89l46.38,108.83h-25.47l-10-25.91h-47.28l-9.71,25.91h-24.25l46.07-108.83h24.25ZM681.2,111.4h32.44l-16.52-41.83-15.92,41.83Z"/><polygon class="cls-4" points="791.83 47.9 836.39 126.1 835.34 47.9 858.68 47.9 858.68 156.73 832.16 156.73 785.32 74.42 786.38 156.73 762.89 156.73 762.89 47.9 791.83 47.9"/><path class="cls-4" d="M897.78,105.19c0,24.4,7.43,32.58,26.67,32.58h37.59v18.95h-38.66c-13.18,0-23.34-1.06-33.94-9.54-11.21-8.94-16.66-23.19-16.66-42.9,0-38.5,16.21-56.38,51.23-56.38h38.04v18.64h-37.59c-19.24,0-26.67,11.67-26.67,38.65"/><path class="cls-4" d="M996.76,92.16h63.35v18.94h-63.5c.15,19.55,7.87,26.67,25.91,26.67h37.59v18.95h-38.65c-13.19,0-23.34-1.06-33.96-9.54-11.22-8.94-16.68-23.19-16.68-42.9,0-38.5,16.22-56.38,51.24-56.38h38.05v18.95h-37.59c-16.52,0-24.85,8.18-25.76,25.31"/><path class="cls-4" d="M1128.76,47.9c35.02,0,51.24,17.88,51.24,56.38,0,19.7-5.46,33.96-16.68,42.9-10.6,8.49-20.76,9.55-33.95,9.55h-50.47V47.9h49.87ZM1101.78,66.85v70.93h26.53c20.31,0,26.68-8.63,26.68-35.46s-6.37-35.46-26.68-35.46h-26.53Z"/><path class="cls-4" d="M824.37,206.9l14.67-36.52h5.08l14.67,36.52h-7.39l-9.75-26.51-9.9,26.51h-7.39ZM834.01,199.77l2.1-6.08h11l2.2,6.08h-15.3Z"/><path class="cls-4" d="M867.6,206.9l-10.58-25.83h7.13l6.08,17.34,6.18-17.34h7.02l-10.48,25.83h-5.35Z"/><path class="cls-4" d="M887.19,177.08v-6.71h6.97v6.71h-6.97ZM887.4,206.9v-25.83h6.5v25.83h-6.5Z"/><path class="cls-4" d="M909.04,207.42c-1.89,0-3.57-.35-5.06-1.05-1.49-.7-2.65-1.69-3.51-2.99-.86-1.29-1.28-2.78-1.28-4.46,0-1.5.31-2.78.92-3.85.61-1.07,1.42-1.88,2.44-2.44.87-.52,1.84-.89,2.91-1.1s2.21-.31,3.43-.31h8.02v4.82h-7.07c-.56,0-1.11.04-1.65.13-.54.09-1,.29-1.39.6-.35.24-.61.55-.79.92s-.26.78-.26,1.23c0,.98.38,1.76,1.15,2.36.77.6,1.8.89,3.09.89,1.15,0,2.21-.25,3.17-.76.96-.51,1.73-1.21,2.31-2.1s.86-1.91.86-3.06l1.73,3.46c-.45,1.82-1.14,3.29-2.07,4.43-.93,1.14-1.98,1.97-3.17,2.49-1.19.52-2.45.79-3.77.79ZM916.85,206.9l-.52-3.88v-12.42c0-1.54-.48-2.68-1.44-3.43-.96-.75-2.26-1.13-3.9-1.13-1.36,0-2.75.27-4.17.81-1.41.54-2.66,1.3-3.75,2.28l-3.3-4.46c1.82-1.47,3.68-2.52,5.58-3.17,1.9-.65,3.96-.97,6.16-.97,3.56,0,6.34.89,8.33,2.67,1.99,1.78,2.99,4.25,2.99,7.39v16.3h-5.97Z"/><path class="cls-4" d="M926.23,186.15v-5.08h16.93v5.08h-16.93ZM938.75,207.42c-1.4,0-2.69-.26-3.88-.79-1.19-.52-2.14-1.38-2.86-2.57-.72-1.19-1.07-2.78-1.07-4.77v-24.26l6.6-3.51v25.99c0,1.5.2,2.64.6,3.41.4.77,1.2,1.15,2.38,1.15.35,0,.74-.03,1.18-.11.44-.07.92-.17,1.44-.31v4.98c-.73.28-1.47.48-2.2.6-.73.12-1.47.18-2.2.18Z"/><path class="cls-4" d="M947.87,177.08v-6.71h6.97v6.71h-6.97ZM948.08,206.9v-25.83h6.5v25.83h-6.5Z"/><path class="cls-4" d="M972.76,207.42c-2.48,0-4.7-.58-6.65-1.73-1.96-1.15-3.5-2.75-4.64-4.79-1.14-2.04-1.7-4.36-1.7-6.94s.56-4.93,1.68-6.94c1.12-2.01,2.66-3.59,4.64-4.74,1.97-1.15,4.2-1.73,6.68-1.73s4.74.58,6.68,1.73c1.94,1.15,3.48,2.73,4.61,4.74s1.7,4.32,1.7,6.94-.56,4.89-1.68,6.92c-1.12,2.03-2.66,3.63-4.61,4.8-1.96,1.17-4.19,1.76-6.71,1.76ZM972.81,201.71c1.33,0,2.47-.31,3.43-.94.96-.63,1.69-1.52,2.2-2.67.51-1.15.76-2.53.76-4.14s-.25-3.03-.76-4.17c-.51-1.14-1.24-2.01-2.2-2.62-.96-.61-2.1-.92-3.43-.92s-2.53.31-3.51.92c-.98.61-1.73,1.48-2.25,2.62-.52,1.14-.79,2.52-.79,4.17s.26,2.99.79,4.14c.52,1.15,1.28,2.04,2.25,2.67.98.63,2.15.94,3.51.94Z"/><path class="cls-4" d="M990.94,206.9v-25.83h6.55v5.87l-1.05.1c.45-1.57,1.12-2.83,1.99-3.77.87-.94,1.89-1.63,3.04-2.07,1.15-.44,2.34-.65,3.56-.65,2.93,0,5.23.83,6.89,2.49,1.66,1.66,2.49,3.99,2.49,7v16.87h-6.55v-14.46c0-2.17-.38-3.75-1.15-4.74-.77-.99-1.97-1.49-3.62-1.49-1.26,0-2.3.29-3.12.86-.82.58-1.44,1.48-1.86,2.7-.42,1.22-.63,2.81-.63,4.77v12.37h-6.55Z"/><path class="cls-4" d="M1050.05,207.74c-3.35,0-6.31-.8-8.86-2.41-2.55-1.61-4.56-3.84-6.03-6.71-1.47-2.87-2.2-6.2-2.2-10.01s.73-7.13,2.2-9.98c1.47-2.85,3.52-5.07,6.16-6.68,2.64-1.61,5.69-2.41,9.14-2.41,3.88,0,7.22.97,10.03,2.91,2.81,1.94,4.83,4.6,6.05,7.99l-6.39,2.36c-.77-2.13-1.98-3.79-3.64-4.98-1.66-1.19-3.68-1.78-6.05-1.78-2.17,0-4.06.51-5.69,1.52-1.62,1.01-2.87,2.45-3.72,4.32-.86,1.87-1.28,4.11-1.28,6.73s.43,4.87,1.28,6.76c.86,1.89,2.1,3.34,3.72,4.35,1.62,1.01,3.52,1.52,5.69,1.52,1.12,0,2.27-.16,3.46-.47,1.19-.31,2.28-.86,3.27-1.65,1-.79,1.8-1.88,2.41-3.27.61-1.4.92-3.18.92-5.35v-2.1l1.52,4.72h-10.48v-6.08h14.99v19.86h-5.97l-.94-5.92,1.15.89c-.63,1.29-1.49,2.38-2.57,3.25-1.08.87-2.31,1.53-3.69,1.97-1.38.44-2.87.65-4.48.65Z"/><path class="cls-4" d="M1072.63,206.9v-25.83h6.55v7.02l-1,.11c.1-1.5.56-2.83,1.36-3.98.8-1.15,1.79-2.05,2.96-2.7,1.17-.65,2.37-.97,3.59-.97.87,0,1.7.11,2.49.34.79.23,1.6.6,2.44,1.13l-3.14,5.87c-.38-.21-.87-.4-1.47-.58-.6-.17-1.19-.26-1.78-.26-.7,0-1.37.12-2.02.37-.65.25-1.22.63-1.73,1.15-.51.52-.92,1.22-1.23,2.1-.14.49-.25,1.11-.34,1.86-.09.75-.13,1.84-.13,3.27v11.11h-6.55Z"/><path class="cls-4" d="M1105.38,207.42c-2.48,0-4.7-.58-6.65-1.73-1.96-1.15-3.5-2.75-4.64-4.79-1.14-2.04-1.7-4.36-1.7-6.94s.56-4.93,1.68-6.94c1.12-2.01,2.66-3.59,4.64-4.74,1.97-1.15,4.2-1.73,6.68-1.73s4.74.58,6.68,1.73c1.94,1.15,3.48,2.73,4.61,4.74,1.14,2.01,1.7,4.32,1.7,6.94s-.56,4.89-1.68,6.92c-1.12,2.03-2.66,3.63-4.61,4.8-1.96,1.17-4.19,1.76-6.71,1.76ZM1105.44,201.71c1.33,0,2.47-.31,3.43-.94.96-.63,1.69-1.52,2.2-2.67.51-1.15.76-2.53.76-4.14s-.25-3.03-.76-4.17c-.51-1.14-1.24-2.01-2.2-2.62-.96-.61-2.1-.92-3.43-.92s-2.53.31-3.51.92c-.98.61-1.73,1.48-2.25,2.62-.52,1.14-.79,2.52-.79,4.17s.26,2.99.79,4.14c.52,1.15,1.28,2.04,2.25,2.67.98.63,2.15.94,3.51.94Z"/><path class="cls-4" d="M1132.68,207.42c-2.1,0-3.85-.42-5.27-1.26-1.41-.84-2.46-2.03-3.14-3.56-.68-1.54-1.02-3.34-1.02-5.4v-16.14h6.5v14.51c0,1.19.14,2.24.42,3.17.28.93.78,1.66,1.49,2.2.72.54,1.7.81,2.96.81,1.54,0,2.7-.44,3.48-1.31s1.33-2.09,1.62-3.64c.3-1.55.45-3.38.45-5.48v-10.27h6.5v25.83h-6.5v-5.61l.89.52c-.77,1.99-1.9,3.42-3.41,4.3-1.5.87-3.16,1.31-4.98,1.31Z"/><path class="cls-4" d="M1153.12,217.59v-36.52h6.5v6.92l-1.57.52c.45-2.06,1.14-3.67,2.07-4.82.93-1.15,1.98-1.96,3.17-2.44,1.19-.47,2.43-.71,3.72-.71,2.27,0,4.24.59,5.89,1.76,1.66,1.17,2.93,2.77,3.8,4.8.87,2.03,1.31,4.33,1.31,6.92,0,2.79-.49,5.2-1.47,7.2-.98,2.01-2.31,3.55-3.98,4.61-1.68,1.07-3.53,1.6-5.55,1.6-1.36,0-2.66-.28-3.88-.84-1.22-.56-2.26-1.41-3.12-2.54-.86-1.14-1.44-2.58-1.76-4.32l1.36.21v17.66h-6.5ZM1165.22,201.45c1.29,0,2.4-.31,3.33-.92.92-.61,1.65-1.48,2.17-2.59.52-1.12.79-2.43.79-3.93s-.26-2.87-.79-3.98c-.52-1.12-1.25-1.98-2.17-2.59-.93-.61-2.04-.92-3.33-.92s-2.35.31-3.27.94c-.93.63-1.64,1.49-2.15,2.59-.51,1.1-.76,2.42-.76,3.96s.25,2.81.76,3.93c.51,1.12,1.22,1.98,2.15,2.59.92.61,2.02.92,3.27.92Z"/></svg>