<?xml version="1.0" encoding="UTF-8"?><svg id="Layer_1" xmlns="http://www.w3.org/2000/svg" viewBox="0 0 1134 227"><defs><style>.cls-1{fill:#f26522;}.cls-1,.cls-2{opacity:.99;}.cls-1,.cls-2,.cls-3,.cls-4{stroke-width:0px;}.cls-2,.cls-4{fill:#fff;}.cls-3{fill:#117cb3;}</style></defs><path class="cls-2" d="M339.12,16.16l-8.35,19.47-59.82,139.76c-2.19,5.14-7.25,8.47-12.84,8.47H46.34l8.35-19.47,46.75-109.21,1.48-3.47,10.63-24.78c.2-.45.37-.85.51-1.19l.2-.45c.17-.43.28-.68.34-.8,2.22-5.06,7.22-8.33,12.76-8.33h211.77Z"/><path class="cls-1" d="M126.83,16.16c-5.54,0-10.54,3.26-12.76,8.32-.06.11-.17.37-.34.8l-.2.45c-.14.34-.31.73-.52,1.2l-10.62,24.77-1.48,3.47-46.74,109.22-8.35,19.46h-29.16l8.35-19.46,46.74-109.22,1.48-3.47,10.63-24.77c.19-.47.36-.86.5-1.2l.2-.45c.17-.42.28-.69.34-.8,2.22-5.06,7.21-8.32,12.76-8.32h29.15Z"/><path class="cls-3" d="M161.47,48.69v9.72c-3.64-1.56-6.76-2.34-9.36-2.33-1.93,0-3.54.39-4.82,1.18-1.27.78-2.07,1.68-2.41,2.7-.33,1.02-.49,3.72-.49,8.12v10.43s16.11-.02,16.11-.02v8.58s-16.11.02-16.11.02l.02,68.6h-9.93s-.07-68.59-.07-68.59h-10.15s0-8.57,0-8.57h10.15s-.01-12.07-.01-12.07c0-5.54.49-9.48,1.51-11.85,1.01-2.37,2.73-4.27,5.17-5.71,2.44-1.45,5.39-2.17,8.83-2.17,3.23,0,7.08.65,11.57,1.97Z"/><path class="cls-3" d="M173.81,48.68h9.93s.11,106.97.11,106.97h-9.93s-.11-106.97-.11-106.97Z"/><path class="cls-3" d="M196.12,78.45h10.5s26.59,59.39,26.59,59.39l25.7-59.46h10.57s-45.94,105.45-45.94,105.45h-10.48s14.81-34.09,14.81-34.09l-31.74-71.3Z"/><path class="cls-4" d="M728.42,207.68l14.62-36.93h4.66l14.57,36.93h-6.68l-10.23-27.98-10.23,27.98h-6.73ZM737.53,199.94l1.91-5.46h11.82l2.01,5.46h-15.74Z"/><path class="cls-4" d="M771.44,207.68l-10.65-26.12h6.46l6.62,18.49,6.73-18.49h6.36l-10.65,26.12h-4.87Z"/><path class="cls-4" d="M791.04,177.27v-6.52h6.41v6.52h-6.41ZM791.31,207.68v-26.12h5.88v26.12h-5.88Z"/><path class="cls-4" d="M812.77,208.16c-1.94,0-3.66-.35-5.17-1.06-1.5-.71-2.67-1.7-3.5-2.97-.83-1.27-1.24-2.75-1.24-4.45,0-1.45.31-2.7.93-3.76.62-1.06,1.42-1.89,2.41-2.49.85-.53,1.84-.91,2.97-1.14,1.13-.23,2.31-.34,3.55-.34h8.21v4.4h-7.37c-.64,0-1.27.06-1.91.19s-1.2.34-1.7.66c-.35.28-.65.64-.87,1.06-.23.42-.34.92-.34,1.48,0,1.13.43,2.02,1.3,2.68.86.65,2.02.98,3.47.98,1.27,0,2.43-.28,3.47-.85,1.04-.56,1.88-1.34,2.52-2.33.64-.99.95-2.1.95-3.34l1.8,2.91c-.42,1.84-1.1,3.38-2.01,4.64-.92,1.26-2.01,2.19-3.29,2.81s-2.67.93-4.19.93ZM820.87,207.68l-.42-4.4v-12.08c0-1.7-.51-2.97-1.54-3.84-1.02-.87-2.46-1.3-4.29-1.3-1.41,0-2.8.27-4.16.82-1.36.55-2.61,1.39-3.74,2.52l-3.28-3.87c1.7-1.59,3.5-2.73,5.4-3.42s3.99-1.03,6.25-1.03c3.53,0,6.28.89,8.24,2.68s2.94,4.27,2.94,7.44v16.48h-5.41Z"/><path class="cls-4" d="M829.93,186.12v-4.56h16.74v4.56h-16.74ZM842.33,208.16c-1.31,0-2.53-.26-3.68-.77-1.15-.51-2.06-1.34-2.73-2.49s-1.01-2.66-1.01-4.53v-25.17l5.93-3.28v26.81c0,1.48.22,2.62.66,3.42.44.79,1.24,1.19,2.41,1.19.35,0,.77-.04,1.24-.13.48-.09.98-.2,1.51-.34v4.56c-.71.25-1.42.43-2.15.56-.72.12-1.46.19-2.2.19Z"/><path class="cls-4" d="M851.6,177.27v-6.52h6.41v6.52h-6.41ZM851.87,207.68v-26.12h5.88v26.12h-5.88Z"/><path class="cls-4" d="M876.4,208.16c-2.51,0-4.75-.58-6.73-1.75-1.98-1.16-3.52-2.77-4.64-4.82-1.11-2.05-1.67-4.38-1.67-6.99s.56-4.95,1.67-6.99c1.11-2.05,2.65-3.65,4.61-4.8,1.96-1.15,4.19-1.72,6.7-1.72s4.79.57,6.73,1.72c1.94,1.15,3.47,2.75,4.58,4.8,1.11,2.05,1.67,4.38,1.67,6.99s-.56,4.95-1.67,6.99c-1.11,2.05-2.65,3.66-4.61,4.82-1.96,1.17-4.18,1.75-6.65,1.75ZM876.35,202.96c1.48,0,2.75-.34,3.81-1.01,1.06-.67,1.87-1.64,2.44-2.91.57-1.27.85-2.76.85-4.45s-.28-3.22-.85-4.48c-.57-1.25-1.38-2.22-2.44-2.89-1.06-.67-2.33-1.01-3.81-1.01s-2.75.34-3.81,1.03c-1.06.69-1.87,1.65-2.44,2.89-.57,1.24-.85,2.72-.85,4.45s.28,3.18.85,4.45c.56,1.27,1.38,2.24,2.44,2.91,1.06.67,2.33,1.01,3.81,1.01Z"/><path class="cls-4" d="M894.99,207.68v-26.12h5.88v5.77l-1.06.27c.46-1.52,1.13-2.76,2.01-3.71.88-.95,1.92-1.66,3.1-2.12s2.43-.69,3.74-.69c2.93,0,5.22.84,6.86,2.52s2.46,4.07,2.46,7.18v16.9h-5.88v-14.73c0-2.33-.42-4.05-1.27-5.14-.85-1.09-2.16-1.64-3.92-1.64-1.31,0-2.41.31-3.31.93-.9.62-1.58,1.58-2.04,2.89-.46,1.31-.69,2.97-.69,4.98v12.72h-5.88Z"/><path class="cls-4" d="M938.71,207.68v-36.93h6.15v36.93h-6.15Z"/><path class="cls-4" d="M952.06,207.68v-26.12h5.88v5.77l-1.06.27c.46-1.52,1.13-2.76,2.01-3.71.88-.95,1.92-1.66,3.1-2.12,1.18-.46,2.43-.69,3.74-.69,2.93,0,5.22.84,6.86,2.52,1.64,1.68,2.46,4.07,2.46,7.18v16.9h-5.88v-14.73c0-2.33-.42-4.05-1.27-5.14-.85-1.09-2.16-1.64-3.92-1.64-1.31,0-2.41.31-3.31.93-.9.62-1.58,1.58-2.04,2.89-.46,1.31-.69,2.97-.69,4.98v12.72h-5.88Z"/><path class="cls-4" d="M990.58,208.16c-1.87,0-3.53-.27-4.98-.82-1.45-.55-2.67-1.24-3.66-2.09-.99-.85-1.8-1.7-2.44-2.54l4.03-3.5c.67,1.09,1.6,2.07,2.78,2.91,1.18.85,2.62,1.27,4.32,1.27,1.41,0,2.53-.3,3.36-.9.83-.6,1.25-1.34,1.25-2.23,0-.78-.27-1.38-.79-1.83-.53-.44-1.22-.82-2.07-1.14-.85-.32-1.78-.6-2.81-.85-.99-.25-2-.56-3.02-.93-1.02-.37-1.97-.84-2.84-1.41-.87-.56-1.56-1.29-2.09-2.17-.53-.88-.79-1.98-.79-3.28,0-2.3.88-4.13,2.65-5.51,1.77-1.38,4.08-2.07,6.94-2.07,2.05,0,3.92.41,5.62,1.22,1.7.81,3.02,2.03,3.97,3.65l-3.66,2.81c-.71-1.06-1.59-1.85-2.65-2.38-1.06-.53-2.21-.79-3.44-.79-1.13,0-2.08.23-2.84.69s-1.14,1.06-1.14,1.8c0,.57.18,1.02.53,1.38.35.35.9.67,1.64.95.74.28,1.68.57,2.81.85,1.06.25,2.15.55,3.29.9,1.13.35,2.18.82,3.15,1.4.97.58,1.77,1.36,2.38,2.33.62.97.93,2.22.93,3.73,0,1.7-.43,3.19-1.3,4.48-.87,1.29-2.08,2.29-3.66,2.99-1.57.71-3.4,1.06-5.48,1.06Z"/><path class="cls-4" d="M1003.72,186.12v-4.56h16.74v4.56h-16.74ZM1016.11,208.16c-1.31,0-2.53-.26-3.68-.77-1.15-.51-2.06-1.34-2.73-2.49-.67-1.15-1.01-2.66-1.01-4.53v-25.17l5.93-3.28v26.81c0,1.48.22,2.62.66,3.42.44.79,1.24,1.19,2.41,1.19.35,0,.77-.04,1.24-.13.48-.09.98-.2,1.51-.34v4.56c-.71.25-1.42.43-2.15.56-.72.12-1.46.19-2.2.19Z"/><path class="cls-4" d="M1025.39,177.27v-6.52h6.41v6.52h-6.41ZM1025.65,207.68v-26.12h5.88v26.12h-5.88Z"/><path class="cls-4" d="M1035.45,186.12v-4.56h16.74v4.56h-16.74ZM1047.85,208.16c-1.31,0-2.53-.26-3.68-.77-1.15-.51-2.06-1.34-2.73-2.49-.67-1.15-1.01-2.66-1.01-4.53v-25.17l5.93-3.28v26.81c0,1.48.22,2.62.66,3.42.44.79,1.24,1.19,2.41,1.19.35,0,.77-.04,1.24-.13.48-.09.98-.2,1.51-.34v4.56c-.71.25-1.42.43-2.15.56-.72.12-1.46.19-2.2.19Z"/><path class="cls-4" d="M1066.5,208.16c-2.05,0-3.77-.41-5.17-1.22-1.4-.81-2.45-1.98-3.15-3.5-.71-1.52-1.06-3.35-1.06-5.51v-16.37h5.88v14.78c0,1.38.17,2.57.5,3.58.34,1.01.88,1.78,1.64,2.31.76.53,1.79.79,3.1.79,1.52,0,2.71-.4,3.58-1.19.87-.79,1.48-1.96,1.85-3.5s.56-3.38.56-5.54v-11.23h5.88v26.12h-5.88v-5.62l1.01.37c-.81,1.98-1.99,3.43-3.52,4.35-1.54.92-3.28,1.38-5.22,1.38Z"/><path class="cls-4" d="M1098.5,208.16c-2.19,0-4.09-.35-5.7-1.06-1.61-.71-2.92-1.7-3.95-2.97-1.02-1.27-1.78-2.71-2.28-4.32-.5-1.61-.74-3.28-.74-5.01s.24-3.42.72-5.06c.48-1.64,1.21-3.12,2.2-4.42.99-1.31,2.26-2.34,3.81-3.1,1.55-.76,3.39-1.14,5.51-1.14s3.77.34,5.27,1.03c1.5.69,2.75,1.64,3.74,2.86.99,1.22,1.72,2.6,2.2,4.16.48,1.55.71,3.21.71,4.98,0,.25,0,.6-.03,1.06s-.06.92-.13,1.38h-18.12c.14,2.09.85,3.67,2.12,4.77,1.27,1.09,2.9,1.64,4.87,1.64,1.45,0,2.77-.23,3.97-.69,1.2-.46,2.3-1.18,3.29-2.17l3.23,3.92c-1.09.99-2.19,1.78-3.28,2.38-1.1.6-2.23,1.04-3.42,1.33-1.18.28-2.52.42-4,.42ZM1104.22,193.59c.07-.28.11-.56.13-.85.02-.28.03-.56.03-.85,0-.78-.13-1.52-.4-2.23-.27-.71-.66-1.33-1.19-1.88-.53-.55-1.18-.99-1.96-1.32s-1.66-.5-2.65-.5c-1.38,0-2.53.3-3.47.9-.94.6-1.66,1.37-2.17,2.3-.51.94-.82,1.95-.93,3.05h14.52l-1.91,1.38Z"/><path class="cls-4" d="M429.08,92.2v64.8h-48.77c-16.86,0-25.53-2.13-33.55-8.51-11.13-8.67-17.18-24.55-17.18-45.66s6.06-36.82,17.02-45.66c7.85-6.22,19.15-9.33,34.69-9.33h47.78v19.47h-45c-20.78,0-28.96,9.49-28.96,33.38,0,13.26,2.95,24.71,7.53,29.95,4.42,4.75,11.29,6.87,22.26,6.87h20.95v-25.86h-30.44v-19.47h53.68Z"/><path class="cls-4" d="M483.73,47.85h26.67l45.17,109.15h-27.16l-10.47-25.37h-41.57l-10.47,25.37h-27.33l45.17-109.15ZM481.6,112.16h31.09l-15.55-38.13-15.55,38.13Z"/><path class="cls-4" d="M544.12,67.32v-19.47h94.09v19.47h-36v89.68h-23.24v-89.68h-34.86Z"/><path class="cls-4" d="M729.85,67.32h-30.27c-16.36.16-21.27,1.64-26.35,8.02-3.27,4.58-4.09,7.36-4.75,17.67h61.37v19.47h-61.37c1.8,18.98,9.66,25.04,32.07,25.04h29.29v19.47h-30.27c-22.26,0-33.55-2.95-41.89-11.13-9.98-9.65-15.55-25.36-15.55-44.02s5.89-33.87,17.51-44.35c8.02-7.2,15.71-9.65,30.93-9.65h39.27v19.47Z"/><path class="cls-4" d="M788.11,130l22.75-82.15h26.02l22.91,82.15,24.55-82.15h23.89l-35.35,109.15h-26.35l-22.58-78.88-22.75,78.88h-26.35l-35.35-109.15h24.06l24.55,82.15Z"/><path class="cls-4" d="M945.7,47.85h26.67l45.17,109.15h-27.16l-10.47-25.37h-41.57l-10.47,25.37h-27.33l45.17-109.15ZM943.57,112.16h31.09l-15.55-38.13-15.55,38.13Z"/><path class="cls-4" d="M1003.8,47.85h27.16l25.04,42.55,26.51-42.55h27.49l-42.55,62.19v46.96h-23.24v-47.78l-40.42-61.37Z"/></svg>