<?xml version="1.0" encoding="UTF-8"?><svg id="Layer_1" xmlns="http://www.w3.org/2000/svg" viewBox="0 0 300 156"><defs><style>.cls-1{fill:#f26522;}.cls-1,.cls-2{opacity:.99;}.cls-1,.cls-2,.cls-3{stroke-width:0px;}.cls-2{fill:#117cb3;}.cls-3{fill:#fff;}</style></defs><path class="cls-2" d="M296,.67l-7.54,17.57-53.98,126.12c-1.97,4.64-6.54,7.64-11.59,7.64H31.78l7.54-17.57,42.19-98.55,1.33-3.13,9.59-22.36c.18-.41.33-.77.46-1.08l.18-.41c.15-.38.26-.62.31-.72,2-4.56,6.51-7.51,11.51-7.51h191.11Z"/><path class="cls-1" d="M104.42.67c-5,0-9.51,2.95-11.51,7.51-.06.1-.15.34-.31.72l-.18.41c-.13.31-.28.66-.46,1.09l-9.58,22.35-1.34,3.13-42.18,98.56-7.54,17.56H5l7.54-17.56L54.72,35.88l1.34-3.13,9.6-22.35c.17-.42.32-.78.45-1.09l.18-.41c.15-.38.25-.62.31-.72,2-4.57,6.51-7.51,11.51-7.51h26.31Z"/><path class="cls-3" d="M135.68,30.03v8.77c-3.28-1.41-6.1-2.11-8.45-2.11-1.74,0-3.2.36-4.35,1.06-1.14.71-1.87,1.52-2.17,2.44-.3.92-.45,3.36-.44,7.33v9.41s14.54-.02,14.54-.02v7.75s-14.54.02-14.54.02l.02,61.9h-8.97s-.06-61.9-.06-61.9h-9.16s0-7.74,0-7.74h9.16s-.01-10.89-.01-10.89c0-5,.44-8.56,1.36-10.69.91-2.13,2.47-3.85,4.66-5.16,2.2-1.31,4.86-1.96,7.97-1.96,2.91,0,6.39.59,10.44,1.78Z"/><path class="cls-3" d="M146.82,30.02h8.97s.1,96.53.1,96.53h-8.97s-.1-96.53-.1-96.53Z"/><path class="cls-3" d="M166.95,56.89h9.47s23.99,53.6,23.99,53.6l23.19-53.66h9.54s-41.46,95.16-41.46,95.16h-9.46s13.37-30.76,13.37-30.76l-28.65-64.34Z"/></svg>