<svg width="840" height="342" viewBox="0 0 840 342" fill="none" xmlns="http://www.w3.org/2000/svg">
<path d="M731.523 252.427V219.01H739.973L748.852 232.186L757.779 219.01H766.229V252.427H758.543V230.944L748.9 245.075L739.209 230.944V252.427H731.523Z" fill="white"/>
<path d="M721.668 252.427L709.161 219.01H716.799L729.784 252.427H721.668ZM695.603 252.427L708.588 219.01H716.226L703.718 252.427H695.603ZM701.713 246.078V239.299H723.721V246.078H701.713Z" fill="white"/>
<path d="M668.768 252.427V219.01H681.896C684.315 219.01 686.463 219.487 688.341 220.442C690.219 221.365 691.683 222.67 692.733 224.356C693.815 226.011 694.356 227.921 694.356 230.085C694.356 232.249 693.815 234.175 692.733 235.862C691.651 237.548 690.155 238.869 688.246 239.824C686.368 240.747 684.204 241.208 681.753 241.208H676.454V252.427H668.768ZM686.909 252.427L679.366 239.156L685.143 234.907L695.693 252.427H686.909ZM676.454 234.143H681.658C682.549 234.143 683.344 233.968 684.045 233.618C684.745 233.268 685.286 232.79 685.668 232.186C686.082 231.549 686.288 230.849 686.288 230.085C686.288 228.908 685.843 227.937 684.952 227.173C684.092 226.409 682.947 226.027 681.514 226.027H676.454V234.143Z" fill="white"/>
<path d="M651.279 253C647.842 253 644.802 252.268 642.161 250.804C639.551 249.308 637.498 247.271 636.002 244.693C634.506 242.084 633.758 239.092 633.758 235.718C633.758 232.345 634.506 229.369 636.002 226.791C637.498 224.181 639.551 222.144 642.161 220.68C644.802 219.185 647.842 218.437 651.279 218.437C653.411 218.437 655.337 218.755 657.055 219.391C658.806 219.996 660.333 220.84 661.638 221.922C662.943 223.004 664.025 224.245 664.884 225.645L658.535 229.464C658.058 228.701 657.421 228.016 656.626 227.412C655.862 226.807 655.018 226.346 654.095 226.027C653.172 225.677 652.234 225.502 651.279 225.502C649.401 225.502 647.73 225.932 646.266 226.791C644.834 227.65 643.704 228.86 642.877 230.419C642.049 231.947 641.635 233.713 641.635 235.718C641.635 237.723 642.033 239.506 642.829 241.065C643.625 242.593 644.77 243.802 646.266 244.693C647.762 245.584 649.497 246.03 651.47 246.03C652.966 246.03 654.286 245.744 655.432 245.171C656.578 244.598 657.485 243.802 658.153 242.784C658.822 241.765 659.156 240.572 659.156 239.203L666.46 237.962C666.46 241.208 665.807 243.961 664.503 246.221C663.198 248.449 661.415 250.136 659.156 251.281C656.896 252.427 654.27 253 651.279 253ZM651.517 240.015V234.095H666.46V238.63L662.163 240.015H651.517Z" fill="white"/>
<path d="M615.427 253C611.99 253 608.95 252.268 606.309 250.804C603.667 249.308 601.598 247.271 600.103 244.693C598.607 242.084 597.859 239.108 597.859 235.766C597.859 232.392 598.607 229.417 600.103 226.839C601.598 224.229 603.651 222.192 606.261 220.728C608.902 219.232 611.926 218.484 615.331 218.484C618.737 218.484 621.744 219.232 624.354 220.728C626.996 222.192 629.064 224.229 630.56 226.839C632.056 229.417 632.804 232.392 632.804 235.766C632.804 239.108 632.056 242.084 630.56 244.693C629.096 247.271 627.059 249.308 624.45 250.804C621.84 252.268 618.832 253 615.427 253ZM615.427 245.935C617.305 245.935 618.96 245.505 620.392 244.646C621.824 243.786 622.938 242.593 623.733 241.065C624.529 239.506 624.927 237.739 624.927 235.766C624.927 233.761 624.513 231.995 623.686 230.467C622.858 228.908 621.728 227.698 620.296 226.839C618.864 225.948 617.209 225.502 615.331 225.502C613.454 225.502 611.799 225.948 610.366 226.839C608.934 227.698 607.804 228.908 606.977 230.467C606.149 231.995 605.736 233.761 605.736 235.766C605.736 237.739 606.149 239.506 606.977 241.065C607.804 242.593 608.95 243.786 610.414 244.646C611.878 245.505 613.549 245.935 615.427 245.935Z" fill="white"/>
<path d="M570.347 252.427V219.01H583.475C585.894 219.01 588.042 219.487 589.92 220.442C591.798 221.365 593.262 222.67 594.312 224.356C595.394 226.011 595.935 227.921 595.935 230.085C595.935 232.249 595.394 234.175 594.312 235.862C593.23 237.548 591.734 238.869 589.824 239.824C587.947 240.747 585.782 241.208 583.332 241.208H578.033V252.427H570.347ZM588.488 252.427L580.945 239.156L586.721 234.907L597.272 252.427H588.488ZM578.033 234.143H583.236C584.128 234.143 584.923 233.968 585.623 233.618C586.324 233.268 586.865 232.79 587.247 232.186C587.66 231.549 587.867 230.849 587.867 230.085C587.867 228.908 587.422 227.937 586.53 227.173C585.671 226.409 584.525 226.027 583.093 226.027H578.033V234.143Z" fill="white"/>
<path d="M542.932 252.427V219.01H556.06C558.479 219.01 560.628 219.503 562.505 220.49C564.383 221.444 565.847 222.781 566.897 224.5C567.979 226.186 568.52 228.16 568.52 230.419C568.52 232.615 567.995 234.589 566.945 236.339C565.927 238.058 564.494 239.41 562.648 240.397C560.803 241.383 558.686 241.877 556.299 241.877H550.618V252.427H542.932ZM550.618 234.811H556.108C557.477 234.811 558.575 234.413 559.402 233.618C560.23 232.79 560.643 231.724 560.643 230.419C560.643 229.114 560.198 228.064 559.307 227.268C558.447 226.441 557.302 226.027 555.869 226.027H550.618V234.811Z" fill="white"/>
<path d="M514.24 252.427V226.075H504.502V219.01H531.618V226.075H521.879V252.427H514.24Z" fill="white"/>
<path d="M488.004 253C484.567 253 481.527 252.268 478.886 250.804C476.244 249.308 474.176 247.271 472.68 244.693C471.184 242.084 470.436 239.108 470.436 235.766C470.436 232.392 471.184 229.417 472.68 226.839C474.176 224.229 476.228 222.192 478.838 220.728C481.48 219.232 484.503 218.484 487.909 218.484C491.314 218.484 494.322 219.232 496.931 220.728C499.573 222.192 501.642 224.229 503.137 226.839C504.633 229.417 505.381 232.392 505.381 235.766C505.381 239.108 504.633 242.084 503.137 244.693C501.673 247.271 499.637 249.308 497.027 250.804C494.417 252.268 491.409 253 488.004 253ZM488.004 245.935C489.882 245.935 491.537 245.505 492.969 244.646C494.401 243.786 495.515 242.593 496.311 241.065C497.106 239.506 497.504 237.739 497.504 235.766C497.504 233.761 497.09 231.995 496.263 230.467C495.435 228.908 494.306 227.698 492.873 226.839C491.441 225.948 489.786 225.502 487.909 225.502C486.031 225.502 484.376 225.948 482.944 226.839C481.512 227.698 480.382 228.908 479.554 230.467C478.727 231.995 478.313 233.761 478.313 235.766C478.313 237.739 478.727 239.506 479.554 241.065C480.382 242.593 481.527 243.786 482.991 244.646C484.455 245.505 486.126 245.935 488.004 245.935Z" fill="white"/>
<path d="M448.705 252.427V219.01H456.391V245.362H470.617V252.427H448.705Z" fill="white"/>
<path d="M436.442 252.427V219.01H444.128V252.427H436.442Z" fill="white"/>
<path d="M409.027 252.427V219.01H422.156C424.574 219.01 426.723 219.503 428.6 220.49C430.478 221.444 431.942 222.781 432.992 224.5C434.075 226.186 434.616 228.16 434.616 230.419C434.616 232.615 434.09 234.589 433.04 236.339C432.022 238.058 430.59 239.41 428.744 240.397C426.898 241.383 424.781 241.877 422.394 241.877H416.713V252.427H409.027ZM416.713 234.811H422.203C423.572 234.811 424.67 234.413 425.497 233.618C426.325 232.79 426.739 231.724 426.739 230.419C426.739 229.114 426.293 228.064 425.402 227.268C424.543 226.441 423.397 226.027 421.965 226.027H416.713V234.811Z" fill="white"/>
<path d="M370.422 252.427V219.01H383.55C385.969 219.01 388.117 219.487 389.995 220.442C391.872 221.365 393.336 222.67 394.387 224.356C395.469 226.011 396.01 227.921 396.01 230.085C396.01 232.249 395.469 234.175 394.387 235.862C393.305 237.548 391.809 238.869 389.899 239.824C388.022 240.747 385.857 241.208 383.407 241.208H378.108V252.427H370.422ZM388.563 252.427L381.02 239.156L386.796 234.907L397.347 252.427H388.563ZM378.108 234.143H383.311C384.202 234.143 384.998 233.968 385.698 233.618C386.398 233.268 386.939 232.79 387.321 232.186C387.735 231.549 387.942 230.849 387.942 230.085C387.942 228.908 387.496 227.937 386.605 227.173C385.746 226.409 384.6 226.027 383.168 226.027H378.108V234.143Z" fill="white"/>
<path d="M344.312 252.427V219.01H366.082V226.075H351.998V232.186H363.79V239.012H351.998V245.362H366.32V252.427H344.312Z" fill="white"/>
<path d="M318.203 252.427V219.01H339.972V226.075H325.889V232.186H337.681V239.012H325.889V245.362H340.211V252.427H318.203Z" fill="white"/>
<path d="M288.877 252.427V219.01H302.006C304.424 219.01 306.573 219.487 308.45 220.442C310.328 221.365 311.792 222.67 312.842 224.356C313.924 226.011 314.465 227.921 314.465 230.085C314.465 232.249 313.924 234.175 312.842 235.862C311.76 237.548 310.264 238.869 308.355 239.824C306.477 240.747 304.313 241.208 301.862 241.208H296.563V252.427H288.877ZM307.018 252.427L299.475 239.156L305.252 234.907L315.802 252.427H307.018ZM296.563 234.143H301.767C302.658 234.143 303.454 233.968 304.154 233.618C304.854 233.268 305.395 232.79 305.777 232.186C306.191 231.549 306.398 230.849 306.398 230.085C306.398 228.908 305.952 227.937 305.061 227.173C304.202 226.409 303.056 226.027 301.624 226.027H296.563V234.143Z" fill="white"/>
<path d="M279.023 252.427L266.515 219.01H274.153L287.138 252.427H279.023ZM252.957 252.427L265.942 219.01H273.58L261.073 252.427H252.957ZM259.068 246.078V239.299H281.075V246.078H259.068Z" fill="white"/>
<path d="M238.131 253C234.821 253 231.893 252.268 229.347 250.804C226.833 249.308 224.844 247.271 223.38 244.693C221.947 242.084 221.231 239.092 221.231 235.718C221.231 232.345 221.947 229.369 223.38 226.791C224.844 224.181 226.833 222.145 229.347 220.681C231.893 219.185 234.821 218.437 238.131 218.437C240.55 218.437 242.762 218.866 244.767 219.726C246.804 220.553 248.554 221.731 250.018 223.258C251.514 224.786 252.66 226.552 253.455 228.557L246.247 230.992C245.769 229.878 245.117 228.908 244.289 228.08C243.494 227.253 242.571 226.616 241.521 226.171C240.502 225.725 239.372 225.502 238.131 225.502C236.381 225.502 234.821 225.932 233.453 226.791C232.084 227.65 231.018 228.86 230.254 230.419C229.49 231.947 229.108 233.713 229.108 235.718C229.108 237.723 229.49 239.506 230.254 241.065C231.05 242.593 232.132 243.802 233.5 244.693C234.901 245.553 236.492 245.982 238.274 245.982C239.579 245.982 240.741 245.744 241.759 245.266C242.778 244.789 243.653 244.121 244.385 243.261C245.149 242.402 245.801 241.415 246.342 240.301L253.551 242.736C252.787 244.773 251.657 246.571 250.161 248.131C248.666 249.658 246.899 250.852 244.862 251.711C242.825 252.57 240.582 253 238.131 253Z" fill="white"/>
<path d="M742.253 157.159L699.955 93H728.433L754.649 137.643L782.289 93H811.186L766.543 158.164V207.33H742.253V157.159Z" fill="white"/>
<path d="M599.522 207.33L646.846 93H674.905L722.228 207.33H693.666L682.61 180.862H639.14L628.084 207.33H599.522ZM660.917 120.473L644.584 160.509H677.166L660.917 120.473Z" fill="white"/>
<path d="M463.241 93L489.039 179.02L512.993 93H540.215L564.17 179.02L589.883 93H615.011L577.99 207.33H550.266L526.562 124.744L502.859 207.33H475.135L438.114 93H463.241Z" fill="white"/>
<path d="M435.175 93V113.353H403.431C394.273 113.409 387.852 114.107 384.166 115.447C379.979 116.843 376.572 119.914 373.948 124.661C372.384 127.62 371.351 132.813 370.849 140.24H435.175V160.593H370.849C371.407 168.578 373.529 174.72 377.215 179.02C379.057 181.141 381.235 182.761 383.748 183.878C386.26 184.939 389.639 185.748 393.882 186.307C396.898 186.753 400.443 186.977 404.52 186.977H435.175V207.33H403.431C394.832 207.33 387.266 206.799 380.732 205.738C373.194 204.51 366.856 201.858 361.719 197.781C356.638 193.705 352.45 187.954 349.156 180.527C345.191 171.649 343.209 161.207 343.209 149.202C343.209 129.491 349.323 114.107 361.552 103.051C366.354 98.7514 371.575 95.9036 377.215 94.5076C381.514 93.5025 387.126 93 394.05 93H435.175Z" fill="white"/>
<path d="M281.472 113.353H245.038V93H343.621V113.353H305.762V207.33H281.472V113.353Z" fill="white"/>
<path d="M141.673 207.33L188.997 93H217.056L264.379 207.33H235.817L224.761 180.862H181.291L170.235 207.33H141.673ZM203.068 120.473L186.735 160.509H219.317L203.068 120.473Z" fill="white"/>
<path d="M82.366 139.402H138.568V207.33H87.4752C77.3126 207.33 69.1322 206.297 62.9341 204.231C55.0608 201.606 48.8627 196.86 44.3398 189.992C37.6391 179.885 34.2888 166.763 34.2888 150.626C34.2888 135.772 37.1366 123.46 42.8321 113.688C48.3043 104.363 56.1218 98.3605 66.2844 95.6803C72.9851 93.8934 80.4396 93 88.6479 93H138.568V113.353H91.4119C81.2492 113.353 73.8506 115.587 69.216 120.054C63.7996 125.303 61.0914 134.712 61.0914 148.28C61.0914 158.052 62.4036 166.233 65.0281 172.821C67.2058 178.461 70.6957 182.314 75.4978 184.38C79.5741 186.111 85.1579 186.977 92.2495 186.977H114.278V159.755H82.366V139.402Z" fill="white"/>
</svg>
