<svg width="741" height="212" viewBox="0 0 741 212" fill="none" xmlns="http://www.w3.org/2000/svg">
<path d="M658.339 170.704V139.534H666.22L674.503 151.824L682.829 139.534H690.711V170.704H683.542V150.666L674.547 163.847L665.508 150.666V170.704H658.339Z" fill="#117CB3"/>
<path d="M649.147 170.704L637.481 139.534H644.605L656.717 170.704H649.147ZM624.835 170.704L636.946 139.534H644.071L632.405 170.704H624.835ZM630.534 164.782V158.459H651.062V164.782H630.534Z" fill="#117CB3"/>
<path d="M599.805 170.704V139.534H612.05C614.306 139.534 616.31 139.98 618.061 140.87C619.813 141.731 621.178 142.948 622.158 144.521C623.167 146.065 623.672 147.846 623.672 149.865C623.672 151.884 623.167 153.679 622.158 155.253C621.149 156.826 619.754 158.058 617.972 158.949C616.221 159.81 614.202 160.24 611.917 160.24H606.974V170.704H599.805ZM616.726 170.704L609.69 158.325L615.078 154.362L624.919 170.704H616.726ZM606.974 153.65H611.827C612.659 153.65 613.401 153.487 614.054 153.16C614.707 152.833 615.212 152.388 615.568 151.824C615.954 151.23 616.147 150.577 616.147 149.865C616.147 148.767 615.731 147.861 614.9 147.149C614.098 146.436 613.03 146.08 611.694 146.08H606.974V153.65Z" fill="#117CB3"/>
<path d="M583.492 171.239C580.286 171.239 577.451 170.556 574.987 169.19C572.553 167.795 570.638 165.895 569.243 163.491C567.848 161.056 567.15 158.266 567.15 155.119C567.15 151.973 567.848 149.197 569.243 146.792C570.638 144.358 572.553 142.458 574.987 141.093C577.451 139.698 580.286 139 583.492 139C585.481 139 587.277 139.297 588.88 139.891C590.512 140.455 591.937 141.241 593.154 142.251C594.372 143.26 595.381 144.418 596.182 145.724L590.26 149.286C589.815 148.574 589.221 147.935 588.479 147.371C587.767 146.807 586.98 146.377 586.119 146.08C585.258 145.753 584.382 145.59 583.492 145.59C581.74 145.59 580.182 145.991 578.816 146.792C577.48 147.594 576.427 148.722 575.655 150.177C574.883 151.602 574.497 153.249 574.497 155.119C574.497 156.989 574.868 158.652 575.61 160.106C576.352 161.531 577.421 162.659 578.816 163.491C580.212 164.322 581.829 164.737 583.67 164.737C585.065 164.737 586.297 164.47 587.366 163.936C588.434 163.402 589.281 162.659 589.904 161.709C590.527 160.76 590.839 159.646 590.839 158.37L597.652 157.212C597.652 160.24 597.043 162.808 595.826 164.916C594.609 166.994 592.947 168.567 590.839 169.636C588.731 170.704 586.282 171.239 583.492 171.239ZM583.714 159.127V153.605H597.652V157.836L593.644 159.127H583.714Z" fill="#117CB3"/>
<path d="M550.051 171.239C546.845 171.239 544.01 170.556 541.546 169.19C539.082 167.795 537.153 165.895 535.758 163.491C534.362 161.056 533.665 158.281 533.665 155.164C533.665 152.017 534.362 149.242 535.758 146.837C537.153 144.403 539.068 142.503 541.502 141.137C543.966 139.742 546.786 139.045 549.962 139.045C553.139 139.045 555.944 139.742 558.378 141.137C560.842 142.503 562.771 144.403 564.167 146.837C565.562 149.242 566.26 152.017 566.26 155.164C566.26 158.281 565.562 161.056 564.167 163.491C562.801 165.895 560.901 167.795 558.467 169.19C556.033 170.556 553.228 171.239 550.051 171.239ZM550.051 164.648C551.803 164.648 553.346 164.248 554.682 163.446C556.018 162.645 557.057 161.531 557.799 160.106C558.541 158.652 558.912 157.004 558.912 155.164C558.912 153.294 558.526 151.646 557.755 150.221C556.983 148.767 555.929 147.639 554.593 146.837C553.257 146.006 551.714 145.59 549.962 145.59C548.211 145.59 546.667 146.006 545.331 146.837C543.995 147.639 542.942 148.767 542.17 150.221C541.398 151.646 541.012 153.294 541.012 155.164C541.012 157.004 541.398 158.652 542.17 160.106C542.942 161.531 544.01 162.645 545.376 163.446C546.741 164.248 548.3 164.648 550.051 164.648Z" fill="#117CB3"/>
<path d="M508.003 170.704V139.534H520.249C522.505 139.534 524.508 139.98 526.26 140.87C528.011 141.731 529.377 142.948 530.357 144.521C531.366 146.065 531.871 147.846 531.871 149.865C531.871 151.884 531.366 153.679 530.357 155.253C529.347 156.826 527.952 158.058 526.171 158.949C524.419 159.81 522.401 160.24 520.115 160.24H515.172V170.704H508.003ZM524.924 170.704L517.889 158.325L523.277 154.362L533.117 170.704H524.924ZM515.172 153.65H520.026C520.857 153.65 521.599 153.487 522.252 153.16C522.905 152.833 523.41 152.388 523.766 151.824C524.152 151.23 524.345 150.577 524.345 149.865C524.345 148.767 523.93 147.861 523.098 147.149C522.297 146.436 521.228 146.08 519.892 146.08H515.172V153.65Z" fill="#117CB3"/>
<path d="M482.432 170.704V139.534H494.678C496.934 139.534 498.938 139.994 500.689 140.915C502.441 141.805 503.806 143.052 504.786 144.655C505.795 146.228 506.3 148.069 506.3 150.177C506.3 152.225 505.81 154.065 504.83 155.698C503.88 157.301 502.544 158.563 500.823 159.483C499.101 160.403 497.127 160.863 494.9 160.863H489.602V170.704H482.432ZM489.602 154.273H494.722C495.999 154.273 497.023 153.902 497.795 153.16C498.567 152.388 498.953 151.394 498.953 150.177C498.953 148.959 498.537 147.98 497.706 147.238C496.904 146.466 495.836 146.08 494.5 146.08H489.602V154.273Z" fill="#117CB3"/>
<path d="M455.671 170.704V146.125H446.587V139.534H471.879V146.125H462.795V170.704H455.671Z" fill="#117CB3"/>
<path d="M431.199 171.239C427.993 171.239 425.158 170.556 422.694 169.19C420.23 167.795 418.3 165.895 416.905 163.491C415.51 161.056 414.812 158.281 414.812 155.164C414.812 152.017 415.51 149.242 416.905 146.837C418.3 144.403 420.215 142.503 422.649 141.137C425.113 139.742 427.933 139.045 431.11 139.045C434.286 139.045 437.091 139.742 439.526 141.137C441.99 142.503 443.919 144.403 445.314 146.837C446.71 149.242 447.407 152.017 447.407 155.164C447.407 158.281 446.71 161.056 445.314 163.491C443.949 165.895 442.049 167.795 439.615 169.19C437.18 170.556 434.375 171.239 431.199 171.239ZM431.199 164.648C432.95 164.648 434.494 164.248 435.83 163.446C437.166 162.645 438.205 161.531 438.947 160.106C439.689 158.652 440.06 157.004 440.06 155.164C440.06 153.294 439.674 151.646 438.902 150.221C438.13 148.767 437.077 147.639 435.741 146.837C434.405 146.006 432.861 145.59 431.11 145.59C429.358 145.59 427.815 146.006 426.479 146.837C425.143 147.639 424.089 148.767 423.317 150.221C422.545 151.646 422.16 153.294 422.16 155.164C422.16 157.004 422.545 158.652 423.317 160.106C424.089 161.531 425.158 162.645 426.523 163.446C427.889 164.248 429.447 164.648 431.199 164.648Z" fill="#117CB3"/>
<path d="M394.543 170.704V139.534H401.712V164.114H414.981V170.704H394.543Z" fill="#117CB3"/>
<path d="M383.105 170.704V139.534H390.274V170.704H383.105Z" fill="#117CB3"/>
<path d="M357.534 170.704V139.534H369.779C372.035 139.534 374.039 139.994 375.791 140.915C377.542 141.805 378.908 143.052 379.887 144.655C380.897 146.228 381.401 148.069 381.401 150.177C381.401 152.225 380.911 154.065 379.932 155.698C378.982 157.301 377.646 158.563 375.924 159.483C374.202 160.403 372.228 160.863 370.002 160.863H364.703V170.704H357.534ZM364.703 154.273H369.824C371.1 154.273 372.124 153.902 372.896 153.16C373.668 152.388 374.054 151.394 374.054 150.177C374.054 148.959 373.638 147.98 372.807 147.238C372.006 146.466 370.937 146.08 369.601 146.08H364.703V154.273Z" fill="#117CB3"/>
<path d="M321.525 170.704V139.534H333.77C336.026 139.534 338.03 139.98 339.782 140.87C341.533 141.731 342.899 142.948 343.878 144.521C344.887 146.065 345.392 147.846 345.392 149.865C345.392 151.884 344.887 153.679 343.878 155.253C342.869 156.826 341.474 158.058 339.692 158.949C337.941 159.81 335.922 160.24 333.637 160.24H328.694V170.704H321.525ZM338.446 170.704L331.41 158.325L336.798 154.362L346.639 170.704H338.446ZM328.694 153.65H333.548C334.379 153.65 335.121 153.487 335.774 153.16C336.427 152.833 336.932 152.388 337.288 151.824C337.674 151.23 337.867 150.577 337.867 149.865C337.867 148.767 337.451 147.861 336.62 147.149C335.819 146.436 334.75 146.08 333.414 146.08H328.694V153.65Z" fill="#117CB3"/>
<path d="M297.172 170.704V139.534H317.477V146.125H304.341V151.824H315.339V158.192H304.341V164.114H317.699V170.704H297.172Z" fill="#117CB3"/>
<path d="M272.819 170.704V139.534H293.124V146.125H279.988V151.824H290.986V158.192H279.988V164.114H293.346V170.704H272.819Z" fill="#117CB3"/>
<path d="M245.465 170.704V139.534H257.71C259.966 139.534 261.97 139.98 263.722 140.87C265.473 141.731 266.839 142.948 267.818 144.521C268.828 146.065 269.332 147.846 269.332 149.865C269.332 151.884 268.828 153.679 267.818 155.253C266.809 156.826 265.414 158.058 263.633 158.949C261.881 159.81 259.862 160.24 257.577 160.24H252.634V170.704H245.465ZM262.386 170.704L255.35 158.325L260.738 154.362L270.579 170.704H262.386ZM252.634 153.65H257.488C258.319 153.65 259.061 153.487 259.714 153.16C260.367 152.833 260.872 152.388 261.228 151.824C261.614 151.23 261.807 150.577 261.807 149.865C261.807 148.767 261.391 147.861 260.56 147.149C259.759 146.436 258.69 146.08 257.354 146.08H252.634V153.65Z" fill="#117CB3"/>
<path d="M236.273 170.704L224.607 139.534H231.731L243.843 170.704H236.273ZM211.961 170.704L224.073 139.534H231.197L219.531 170.704H211.961ZM217.66 164.782V158.459H238.188V164.782H217.66Z" fill="#117CB3"/>
<path d="M198.132 171.239C195.045 171.239 192.314 170.556 189.939 169.19C187.594 167.795 185.738 165.895 184.373 163.491C183.037 161.056 182.369 158.266 182.369 155.119C182.369 151.973 183.037 149.197 184.373 146.792C185.738 144.358 187.594 142.458 189.939 141.093C192.314 139.698 195.045 139 198.132 139C200.388 139 202.451 139.401 204.321 140.202C206.221 140.974 207.854 142.072 209.22 143.497C210.615 144.922 211.683 146.57 212.426 148.44L205.702 150.711C205.256 149.672 204.648 148.767 203.876 147.995C203.134 147.223 202.273 146.629 201.293 146.214C200.344 145.798 199.29 145.59 198.132 145.59C196.499 145.59 195.045 145.991 193.768 146.792C192.492 147.594 191.497 148.722 190.785 150.177C190.072 151.602 189.716 153.249 189.716 155.119C189.716 156.989 190.072 158.652 190.785 160.106C191.527 161.531 192.536 162.659 193.813 163.491C195.119 164.292 196.603 164.693 198.266 164.693C199.483 164.693 200.566 164.47 201.516 164.025C202.466 163.58 203.282 162.956 203.965 162.155C204.678 161.353 205.286 160.433 205.791 159.394L212.515 161.665C211.802 163.565 210.748 165.242 209.353 166.697C207.958 168.122 206.31 169.235 204.41 170.036C202.511 170.838 200.418 171.239 198.132 171.239Z" fill="#117CB3"/>
<path d="M668.347 81.8435L628.894 22H655.456L679.909 63.6404L705.691 22H732.644L691.003 82.781V128.64H668.347V81.8435Z" fill="#117CB3"/>
<path d="M535.216 128.64L579.357 22H605.529L649.669 128.64H623.028L612.716 103.953H572.169L561.857 128.64H535.216ZM592.482 47.6249L577.247 84.9685H607.638L592.482 47.6249Z" fill="#117CB3"/>
<path d="M408.101 22L432.164 102.234L454.507 22H479.898L502.242 102.234L526.226 22H549.663L515.132 128.64H489.273L467.164 51.6092L445.054 128.64H419.195L384.664 22H408.101Z" fill="#117CB3"/>
<path d="M381.923 22V40.9843H352.314C343.772 41.0364 337.783 41.6874 334.345 42.9374C330.439 44.2395 327.262 47.1041 324.814 51.5311C323.356 54.2915 322.392 59.1352 321.923 66.0623H381.923V85.0466H321.923C322.444 92.4945 324.423 98.2236 327.861 102.234C329.58 104.213 331.611 105.724 333.955 106.765C336.298 107.755 339.449 108.51 343.408 109.031C346.22 109.448 349.528 109.656 353.33 109.656H381.923V128.64H352.314C344.293 128.64 337.236 128.145 331.142 127.156C324.111 126.01 318.2 123.536 313.408 119.734C308.668 115.932 304.762 110.567 301.689 103.64C297.991 95.359 296.142 85.6195 296.142 74.4216C296.142 56.0363 301.845 41.6874 313.252 31.375C317.731 27.3646 322.601 24.7083 327.861 23.4062C331.871 22.4687 337.106 22 343.564 22H381.923Z" fill="#117CB3"/>
<path d="M238.558 40.9843H204.574V22H296.527V40.9843H261.214V128.64H238.558V40.9843Z" fill="#117CB3"/>
<path d="M108.162 128.64L152.302 22H178.474L222.615 128.64H195.974L185.662 103.953H145.115L134.802 128.64H108.162ZM165.427 47.6249L150.193 84.9685H180.584L165.427 47.6249Z" fill="#117CB3"/>
<path d="M52.8435 65.2811H105.265V128.64H57.6091C48.13 128.64 40.4999 127.677 34.7186 125.75C27.3749 123.302 21.5937 118.875 17.375 112.468C11.125 103.041 8 90.8018 8 75.7498C8 61.8956 10.6562 50.4113 15.9687 41.2968C21.0729 32.5989 28.3645 27 37.8436 24.5C44.0936 22.8333 51.0467 22 58.7029 22H105.265V40.9843H61.281C51.8019 40.9843 44.9009 43.0676 40.578 47.2343C35.5259 52.1301 32.9999 60.9061 32.9999 73.5623C32.9999 82.6768 34.2238 90.307 36.6717 96.4528C38.703 101.713 41.9582 105.307 46.4373 107.234C50.2394 108.849 55.4477 109.656 62.0623 109.656H82.609V84.2653H52.8435V65.2811Z" fill="#117CB3"/>
</svg>
