<?xml version="1.0" encoding="utf-8"?>
<!-- Generator: Adobe Illustrator 28.3.0, SVG Export Plug-In . SVG Version: 6.00 Build 0)  -->
<svg version="1.1" id="Layer_1" xmlns="http://www.w3.org/2000/svg" xmlns:xlink="http://www.w3.org/1999/xlink" x="0px" y="0px"
	 viewBox="0 0 1200 1200" style="enable-background:new 0 0 1200 1200;" xml:space="preserve">
<style type="text/css">
	.st0{fill:#FFFFFF;}
</style>
<g>
	<g>
		<polygon class="st0" points="968.8,1000 968.8,1022.4 885.4,1022.4 885.4,923.5 967.3,923.5 967.3,944.6 916.1,944.6 916.1,960.3 
			963.6,960.3 963.6,980.5 916.1,980.5 916.1,1000 		"/>
		<path class="st0" d="M860.9,993.6c-0.7-1.4-2.2-3.5-4.3-6.1c-2.1-2.7-3.8-4.4-4.9-5.2c-1.6-1.2-4.3-2.4-7.9-3.6
			c4.5-1,8.1-2.3,10.7-3.9c4.1-2.5,7.4-5.7,9.7-9.7c2.3-4,3.5-8.7,3.5-14.2c0-6.3-1.5-11.6-4.6-16c-3.1-4.4-7.1-7.4-12.1-9
			c-5-1.6-12.3-2.4-21.7-2.4h-50.9v98.9h30.7v-40.1h2.7c2.8,0,5.3,0.8,7.5,2.3c1.6,1.2,3.4,3.7,5.5,7.6l16.3,30.2v-0.1h34.6
			L860.9,993.6z M835,959.1c-1.3,1.7-2.9,2.7-5,3.1c-4,0.9-6.7,1.3-8.1,1.3h-12.8v-20.1h13.4c5.6,0,9.4,0.8,11.4,2.6
			c2,1.8,3,4.2,3,7.4C836.9,955.6,836.3,957.5,835,959.1z"/>
		<polygon class="st0" points="761.6,1000 761.6,1022.4 678.2,1022.4 678.2,923.5 760.1,923.5 760.1,944.6 708.9,944.6 708.9,960.3 
			756.4,960.3 756.4,980.5 708.9,980.5 708.9,1000 		"/>
		<polygon class="st0" points="267,944.8 267,962.1 305.3,962.1 305.3,982.1 267,982.1 267,1022.5 236.3,1022.5 236.3,923.6 
			311.8,923.6 311.8,944.8 		"/>
		<polygon class="st0" points="406.5,998 406.5,1022.4 328.3,1022.4 328.3,923.5 358.8,923.5 358.8,998 		"/>
		<polygon class="st0" points="507.4,923.5 468.9,981 468.9,1022.4 438.3,1022.4 438.3,981 399.8,923.5 433.7,923.5 453.6,956.8 
			473.6,923.5 		"/>
		<polygon class="st0" points="658,923.5 658,1022.4 627.3,1022.4 627.3,982.4 593.9,982.4 593.9,1022.4 563.4,1022.4 563.4,923.5 
			593.9,923.5 593.9,958.1 627.3,958.1 627.3,923.5 		"/>
		<path class="st0" d="M863.1,807.9c-32.6-34.6-65-69.6-97.3-104.5c-32.8-35.4-65.5-71-98.4-106.4c-6-6.6-6-11.4,0.5-18.1
			c17.1-17.8,33.4-36.3,49.8-54.7c5.5-6.1,12.6-12.3,14.5-19.6c1.6-6.2-3.1-14-5.4-22.5c10.3,9.5,19.9,18.2,29.4,26.9
			c1.6-1.7,3.2-3.3,4.8-5c-11.4-7.7-22.7-15.3-34.1-22.9c1.5-1.3,3-2.6,4.5-3.9c1.9-6.5,3.8-12.9,6.5-22c-9.7,3.3-16.3,5.5-22.5,7.6
			c-8-8.3-15.3-16.1-22.7-23.8l-2.7,2.7c7,8.1,14.1,16.2,22.8,26.2c-21.9-9.5-22.2-9.9-40.2,5.2c-22.7,19-44.8,38.8-67.8,58.9
			c-5.8-5-11.4-9.5-16.5-14.5c-41.5-40.3-82.8-80.9-124.6-120.9c-19.2-18.5-39.5-35.9-59.3-53.9c-32.1-29.2-32.7-29.2-64,1.1
			c-0.7,0.6-0.7,1.8-0.9,2.2c8.6,9.9,17.4,19.1,25.3,29.1c53.4,67.8,106.7,135.8,159.9,203.7c11.5,14.6,12.4,25.6,2.3,41.8
			c-18.2,29.2-36.8,58.1-55.8,86.8c-6.2,9.2-14.1,17.4-21.6,26.6c-26.8-21.7-52.6-42-77.6-63.2c-7.8-6.7-14.1-7.1-21.6-1.1
			c-4.7,3.8-9.2,7.9-14.4,12.5c26.4,29.2,52.1,57.6,77.8,86.1c-5.3,7.6-9.7,14.1-14.2,20.6c0.4,0.4,0.9,0.9,1.4,1.3
			c6.6-4.5,13.2-9,20.3-13.8c28.4,26.3,56.6,52.4,84.7,78.4c22.8-20.4,23-22.4,5.6-44c-18-22.3-36-44.7-55.1-68.7
			c10-8,19-16.3,29.2-23c24.9-16.3,50.1-32.3,75.6-47.6c30.3-18.2,32.7-17.8,59.8,4c74.4,59.7,148.8,119.6,224.3,180.2
			c5.5-6.5,12.7-14.5,19.2-23C870.9,824.3,871,816.3,863.1,807.9z M558.6,579c2.1,17.7-12.6,23.2-19.7,34.1l-4.1-3.6
			C542.8,599.3,550.7,589.2,558.6,579z M533.6,670.7c-3,1-13.2-8.7-12.6-9.9c3.7-7.8,8.3-16.8,15.2-20.9c2.9-1.7,12.3,7.3,23.3,14.3
			C548.1,661.8,541.5,668.1,533.6,670.7z M567.4,571.3c9.2-9.9,18.3-19.8,28.3-30.6c4.1,13.9-4.4,24.9-24.2,34.4
			C570.1,573.8,568.8,572.6,567.4,571.3z M582.1,656.8c-1-1.4-2.1-2.7-3.1-4.1l30-24c1.3,1.6,2.6,3.3,3.8,5
			C602.6,641.4,592.3,649.1,582.1,656.8z M611,537.2c7.7-7,15.2-17,24.4-18.9c15.1-3.2,28.6,6.2,34.5,19.9
			c3.7,8.6,3.6,20.7,0.6,29.8c-2.3,7-11.6,11.8-20.7,20.3c-6.5-22.5-16-37.4-36-42.8C612.1,545,610,538.1,611,537.2z M620.2,624.9
			c2.4-19.2,16.7-31.1,33.7-30.2C641.2,606.1,630.7,615.5,620.2,624.9z"/>
		<path class="st0" d="M969.8,191c-8.9-8.8-21.5-13.2-38-13.2c-16.1,0-28.6,4.5-37.6,13.5s-13.5,21.6-13.5,37.7
			c0,11.6,2.3,21.2,6.8,28.9c4.6,7.7,10.5,13.4,17.8,16.9s16.5,5.3,27.7,5.3c11,0,20.2-2.1,27.5-6.2c7.4-4.1,13-9.9,16.9-17.3
			c3.9-7.4,5.8-16.8,5.7-28.5C983.1,212.2,978.7,199.8,969.8,191z M947.3,250.8c-3.6,4.3-8.7,6.4-15.2,6.4c-6.4,0-11.4-2.2-15.1-6.5
			c-3.7-4.4-5.6-11.5-5.6-21.5c0-10.1,1.9-17.3,5.6-21.7c3.7-4.4,8.7-6.5,14.8-6.5c6.4,0,11.5,2.1,15.3,6.4
			c3.7,4.3,5.6,11.1,5.6,20.4C952.7,238.9,950.9,246.5,947.3,250.8z"/>
		<polygon class="st0" points="875.6,179.5 875.6,203.9 844.4,203.9 844.4,278.4 813.8,278.4 813.8,203.9 782.6,203.9 782.6,179.5 
					"/>
		<polygon class="st0" points="723.2,179.5 723.2,278.4 694.4,278.4 657.4,224.1 657.4,278.4 628.7,278.4 628.7,179.5 657.2,179.5 
			694.4,234.2 694.4,179.5 		"/>
		<path class="st0" d="M604,249.6c-0.7-1.4-2.2-3.5-4.3-6.1c-2.1-2.7-3.8-4.4-4.9-5.2c-1.6-1.2-4.3-2.4-7.9-3.6
			c4.5-1,8.1-2.3,10.7-3.9c4.1-2.5,7.4-5.7,9.7-9.7s3.5-8.7,3.5-14.2c0-6.3-1.5-11.6-4.6-16c-3.1-4.4-7.1-7.4-12.1-9
			c-5-1.6-12.3-2.4-21.7-2.4h-50.8v98.7h30.7v-40.1h2.7c2.8,0,5.3,0.8,7.5,2.3c1.6,1.2,3.4,3.7,5.5,7.6l16.3,30.2h34.5L604,249.6z
			 M578.1,215.1c-1.3,1.7-2.9,2.7-5,3.1c-4,0.9-6.7,1.3-8.1,1.3h-12.9v-20.1h13.4c5.6,0,9.4,0.8,11.4,2.6c2.1,1.8,3.1,4.2,3.1,7.4
			C580,211.6,579.4,213.5,578.1,215.1z"/>
		<path class="st0" d="M474.2,179.5h-33.3l-37.2,98.9h31.2l4.8-16.3h34.7l5,16.3h32L474.2,179.5z M446.4,240.7l10.8-35.6l10.9,35.6
			H446.4z"/>
		<polygon class="st0" points="397.1,256 397.1,278.4 313.7,278.4 313.7,179.5 395.7,179.5 395.7,200.6 344.4,200.6 344.4,216.3 
			392,216.3 392,236.5 344.4,236.5 344.4,256 		"/>
		<polygon class="st0" points="300,254 300,278.3 221.8,278.3 221.8,179.5 252.3,179.5 252.3,254 		"/>
	</g>
</g>
<g>
	<path class="st0" d="M1133.9,77.5H71c-28.3,0-51.3,23-51.3,51.3v942.9c0,28.3,23,51.3,51.3,51.3h1062.9c28.3,0,51.3-23,51.3-51.3
		V128.7C1185.1,100.4,1162.2,77.5,1133.9,77.5z M1161.1,1071.6c0,15-12.2,27.3-27.3,27.3H71c-15,0-27.3-12.2-27.3-27.3V128.7
		c0-15,12.2-27.3,27.3-27.3h1062.9c15,0,27.3,12.2,27.3,27.3V1071.6z"/>
</g>
</svg>
