<?xml version="1.0" encoding="UTF-8"?><svg id="Layer_1" xmlns="http://www.w3.org/2000/svg" viewBox="0 0 722.29 346.32"><defs><style>.cls-1{fill:#010101;}.cls-1,.cls-2,.cls-3{stroke-width:0px;}.cls-2{fill:#177db6;}.cls-3{fill:#fff;}</style></defs><path class="cls-2" d="M564.3,282.68c-10.33,2.83-6.34,24.8,2.2,25.05,11.08.32,10.59-28.55-2.2-25.05ZM714.65,30.58l-48.18-4.09-72.68,31.04-66.14,42.46-35.93-12.25-64.52,3.27-74.31,8.98-77.58,9.8-44.09-9.8-19.6-26.95-5.72-28.58-11.43-22.05-36.75-13.06,13.07,58.79v53.9l-70.23,21.23-43.36,18.13s-.01.01-.01.01l-1.54.64v8.98l28.58,4.9,48.99-8.98,47.37-19.6,80.84,43.28,59.61,18.79L9.1,292.71l46.55,18.78h62.06l47.55-7.02,52.08-7.68,103.7-31.85-4.4,8.8-3.1,6.21-2.29,4.59-7.36,21.23,7.36,24.5,17.14,7.35,5.47-5.47c-1.79,1.16-3.89,1.91-6.31,2.14-22.54,2.13-28.81-44.84-7.08-48.97,18.93-3.59,27.11,28.46,17.64,42.58l7.43-7.43v-23.68l-12.25-19.6v-16.33l104.53-31.03,12.29,1.4,15.11,1.73,29.76,3.4,69.41-6.53,4.9,26.95-13.06,8.16-5.72,19.6v17.15l13.88,13.88h9.93c-4.47-.25-9.16-2.38-13.63-7.05-14.29-14.9-8.66-45.38,13.92-47.41-3.8,19.41-.44,39.78,22.12,22.73,2.92,14.9-7.84,31.28-20.96,31.73h7.41l14.7-9.8,4.08-28.58,17.96-28.58,4.1-10.16h0s2.67-6.62,2.67-6.62l.02-.05,13.63-33.8,26.13-7.35,7.35-9.8-14.7-18.78,4.5-5.25,29.8-34.76,11.43-31.03v-14.7l-8.98-3.27-22.05,17.97-20.41,40.01-6.54,22.05-19.6-17.15-25.31-9.8,102.89-81.66,9.8-13.88ZM475.79,111.09c9.22-1.56,17,1.8,24.71,6.25,4.43,2.57,21.43,14.46,17.98,19.95-1.5,2.41-31.76,16.09-36.02,17.08-2.78.67-4.73,1.3-7.57-.02-3.53-1.62-18.17-27.3-17.73-31.54s14.39-11.01,18.63-11.72ZM446.51,153.72c-1.76,3.9-13.39,1.58-17.58,1.09-6.17-.72-26.95-4.56-31.12-8.04-4.65-3.87.77-22.43,11.03-24.33l.02-.02c6.28-1.16,21.55.21,26.25,4.72,1.69,1.65,12,25.26,11.4,26.58ZM378.7,124.85c.63,3.52.19,18.86-3.15,19.95-8.85-2.78-38.64-.39-31.11-16.06,2.6-5.42,32.46-6.79,34.26-3.89ZM512.57,101.61l35.54,18.03c-3.47,14.2-23-2.72-29.05-8.23-1.13-1.04-7.87-8.51-6.49-9.8ZM669.4,182.09c-1.46,10.24-33.15,17.31-41.12,10.84-8.75-7.11,2.09-30.45,11.68-32.63,9.17-2.08,30.76,12.66,29.44,21.79ZM319.38,300.96c-10.33,2.83-6.35,24.8,2.2,25.05,11.07.33,10.58-28.55-2.2-25.05Z"/><path class="cls-1" d="M677.22,91.82l14.7-15.52h12.25l2.45,12.25-8.17,26.95-21.23,29.4-19.6,17.15-11.43-4.9,11.43-34.3,19.6-31.03Z"/><path class="cls-1" d="M605.99,267.82l-14.5,15.71-12.25.16-2.61-12.22,7.82-27.05,20.85-29.67,19.37-17.4,11.49,4.75-10.98,34.44-19.19,31.28Z"/><path class="cls-1" d="M707.28,49.54c11.26-10.73,17.28-20.97-3.5-24.33-43.85-7.09-72.23,9.54-108.5,29.77-23.19,12.93-45.48,27.37-67.97,41.41-55.46-21.59-115.02-6.97-171.75.49-4.47-1.18-32.62-31.35-34.77-29.06l23.98,31.59.04.02c-40.88,3.15-105.93,22.48-129.05-24.4-8.41-17.06-2.8-37.96-16.15-52.07-7.48-7.93-23.83-16.01-34.79-15.83-5.51.09-11.12.26-10.66,6.86.42,6.07,4.54,16.18,5.84,23.31,1.95,10.75,2.46,21.69,4.17,32.47l1.2,51.09c-10.3,1.7-21.01,5.36-30.9,8.88-12.6,4.5-61.42,22.23-77.27,31.66-.01,0-.01.01-.01.01-.56.32-1.07.64-1.54.95-1.18.77-2.08,1.47-2.67,2.09-3.08,3.25-4.89,5.42-1.81,9.48,7.02,9.25,40.35,6.26,51.59,4.94,27.08-3.2,51.17-13.98,75.75-24.89,27.52,20.07,59.49,33.11,91.11,45.3l41.07,12.61c-18.99,3.31-37.97,7.32-56.59,12.23-85.48,22.55-124.26,30.27-184.63,47.78-15.29,4.45-43.74,11.06-56.85,17.69-15.26,7.69-.65,13.16,7.86,16.15,59.14,20.83,97.36,18.56,157.38,5.09,46.89-10.51,92.87-24.24,138.71-38.42.03.47.05.91.07,1.33.15,2.85.17,4.68.17,4.68-1,.34-2.14.89-3.27,1.53-1.62.93-3.2,2.06-4.24,3.08-12.25,11.91-10.4,33.16-3.15,44.67,19.32,30.69,53.65,3.39,40.89-31.53-2.23-6.15-4.1-9.81-11.68-16.57,0,0-.07-12.19.56-12.77l99.28-30.89c25.99,5.72,52.87,6.58,79.46,6.21l48.11-5.4,2.53,19.33c-16.61,7.74-22.63,24.05-17.86,41.73,9.33,34.69,54.53,28.04,56.29-7.04.19-3.73-1.11-11.03-1.11-11.03.35-1.32,12.32-17.13,14.71-20.86,11.16-17.47,17.49-35.22,23.58-55.91,25.62-3.32,52.96-18.33,22.17-41.02,15.45-14.04,28.21-29.73,37.36-48.66,5.93-12.31,18.84-49.99-6.85-39.54-20.43,8.32-44.69,53.02-46.98,73.67-9.99-10.45-22.77-16.99-36.6-20.83,5.7-4.99,12.32-8.67,18.25-13.33,24.97-19.62,56.5-42.26,79.02-63.72ZM512.57,101.61l35.54,18.03c-3.47,14.2-23-2.72-29.05-8.23-1.13-1.04-7.87-8.51-6.49-9.8ZM538.01,101.28c-.49-1.99,1.76-2.52,2.85-3.43,17.61-14.73,94.19-57.44,115.62-62.49,16.99-4.01,33.66-3.13,50.75-.37.58,2.2-.9,2.52-1.87,3.8-14.16,18.39-72.49,61.64-93.71,75.54-6.51,4.26-12.88,9.62-20.89,8.78-17.84-1.88-37.65-12.67-52.75-21.83ZM63.68,171.45c-2.27-.16-4.1.35-5.61-1.95,2-2.59,4.73-3.73,7.58-5.02,18.86-8.63,78.32-32.31,96.62-33.49,7.21-.46,20.73.72,20.66,9.94-26.61,13.79-54.43,28.5-85.04,30.52-9.7.63-24.57.72-34.21,0ZM116.75,311.62c-7.84.6-17.49.54-27.73-.13-21.67-1.41-46-5.5-61.59-11.57-5.1-1.99-7.42-4.15-.72-6.37,85.06-22.99,152.84-40.32,229.36-59.88,46.65-11.94,143-40.53,187.17-24.98,1.9.65,15.43,7.44,13.92,9.43h-.02c-7.67,3.13-15.17,6.47-23.03,9.2-49.45,17.19-105.61,32.44-156.32,47.04-35.08,10.11-74.36,22.3-112.53,30.11-16.52,3.38-32.83,5.94-48.51,7.15ZM329.76,277.4s-3.64-.91-6.49-.37l.18-6.93,6.12-1.42.19,8.72ZM333.86,332.15c-1.79,1.16-3.89,1.91-6.31,2.14-22.54,2.13-28.81-44.84-7.08-48.97,18.93-3.59,27.11,28.46,17.64,42.58-1.15,1.71-2.56,3.17-4.25,4.25ZM448.38,232.05s.65-.3,1.73-.82c4.15-1.96,14.57-7,18.17-9.61,6.88-4.96-11.46-16.34-15.66-18.45-17.23-8.62-41.39-9.01-60.43-7.74-17.68,1.19-54.63,13.21-67.65,12.05-8.1-.72-26.17-7.76-34.7-10.77-15.86-5.59-31.75-12.07-47.34-19.26h-.01c-4.33-2-8.64-4.05-12.92-6.15-2.26-1.11-4.51-2.23-6.74-3.37h-.01c-4.43-2.25-8.82-4.55-13.16-6.9-7.73-4.18-15.32-8.52-22.72-12.98,13.67-10.41-2.59-22.6-13.92-24.66,2.69-35.27,1.97-73.39-8.85-107.34,2.22-1.64,18.25,5.5,21.08,7.33,16.24,10.52,12.69,24.47,16.12,40.71,3.73,17.64,13.46,30.52,27.2,41.62l-30.23-3.13c1.34,1.74,3.06,2.8,4.96,3.85,30.85,17.01,124.12,5.3,160.92.39,46.71-6.23,93.62-19.58,140.87-8.53-3.01,10.9,23.49,29.99,31.67,32.12,13.39,3.48,16.26-8.69,19.74-8.36,27.05,11.42,63.52,9.68,86.38,32.95-11.42.53-22.82,13.95-23.86,24.79-.63,6.56,2.01,9.73,1.81,15.6-8.69,6.51-14.9,19.23-24.7,23.4-7.8,3.32-22.58,6.26-31.27,7.88-13.79,2.57-27.8,4.34-41.89,5.41-5.43.41-10.87.73-16.32.95-13.82.54-27.67.49-41.43-.07-5.63-.22-11.25-.53-16.84-.91ZM669.4,182.09c-1.46,10.24-33.15,17.31-41.12,10.84-8.75-7.11,2.09-30.45,11.68-32.63,9.17-2.08,30.76,12.66,29.44,21.79ZM579.75,232.09l11.31-2.57-10.08,16.41-1.23-13.84ZM602.39,269.26c-3.36,4.34-14.37,16.71-20.23,12.72-6.11-5.49,1.51-24.84,6.49-34.57,4.98-9.73,28.68-44.63,39.94-46.72,1.87-.34,2.73.49,4.49,1.42,1.69,1.37,1.04,4.56.56,6.32-5.26,19.19-15.41,40.39-31.25,60.83ZM651.8,157.38h-.03c-4.05-3.03,8.58-34.85,18.3-50.28,4.57-7.23,21.97-33.39,32.13-27.28,2,2.39,2.62,4.62.63,11.82-7.55,27.32-25.46,51.05-39.1,62.15-6.09,4.96-7.58,6.84-11.93,3.59ZM575.82,254.59h-3.6l-2.52-20.85h4.89l1.23,20.85ZM574.32,315.57c-4.47-.25-9.16-2.38-13.63-7.05-14.29-14.9-8.66-45.38,13.92-47.41-3.8,19.41-.44,39.78,22.12,22.73,2.92,14.9-7.84,31.28-20.96,31.73-.48.02-.96.02-1.45,0Z"/><path class="cls-1" d="M318.32,170.52s103.71,1.44,139.64,13.88c35.93,12.44,66.15,49,66.15,49l-16.05,1.33s-17.71-23.07-50.09-38.89c-32.39-15.82-139.64-25.31-139.64-25.31Z"/><path class="cls-1" d="M377.11,185.22s-77.58-19.73-115.96-22.86c-38.38-3.13-53.62-1.12-53.62-1.12l13.07,6.84s22.59-1.63,43.82,0c21.23,1.63,112.69,17.15,112.69,17.15Z"/><path class="cls-3" d="M307.98,176.75s-30.49-4.47-41.93-5.4c-11.43-.93-38.1,0-38.1,0l12.25,6.22s15.52-.82,25.85-1.32c10.34-.5,41.93.5,41.93.5Z"/><path class="cls-3" d="M485.18,196.35s-34.84-26.71-67.78-29.4c-32.94-2.69-91.46-1.63-91.46-1.63,0,0,50.63.82,91.46,5.72,40.83,4.9,67.78,25.32,67.78,25.32Z"/><path class="cls-1" d="M522.65,128.03c-9.27-13.08-31.85-25.64-48.09-23.25v.03c-6.58.95-23.93,9.84-24.65,16.89-.6,5.68,15.11,35.06,19.95,38.93,1.18.93,4.56,2.76,5.95,2.99,5.21.86,34.03-12.61,40.33-15.99,10.01-5.38,14.27-8.65,6.51-19.6ZM518.48,137.29c-1.5,2.41-31.76,16.09-36.02,17.08-2.78.67-4.73,1.3-7.57-.02-3.53-1.62-18.17-27.3-17.73-31.54s14.39-11.01,18.63-11.72c9.22-1.56,17,1.8,24.71,6.25,4.43,2.57,21.43,14.46,17.98,19.95Z"/><path class="cls-1" d="M438.28,120.19c-5.88-5.1-21.77-5.16-29.39-4.03-5.77.86-12.23,3.78-14.74,9.27-1.99,4.33-5.55,23.01-2.78,26.53,2.37,2.97,36.95,8.62,42.6,9.2,5.66.58,19.56,3.57,20.14-4.24.32-4.33-12.07-33.46-15.83-36.73ZM446.51,153.72c-1.76,3.9-13.39,1.58-17.58,1.09-6.17-.72-26.95-4.56-31.12-8.04-4.65-3.87.77-22.43,11.03-24.33l.02-.02c6.28-1.16,21.55.21,26.25,4.72,1.69,1.65,12,25.26,11.4,26.58Z"/><path class="cls-1" d="M385.95,123.39c-1.36-5.14-7.99-5.89-12.78-6.28-4.8-.39-25.44.74-29.17,2.39-5.05,2.2-10.01,18.44-6.51,22.54h.03c2.82,3.32,39.52,10.18,43.87,5.98,2.11-2.04,5.35-21.66,4.56-24.63ZM375.55,144.8c-8.85-2.78-38.64-.39-31.11-16.06,2.6-5.42,32.46-6.79,34.26-3.89.63,3.52.19,18.86-3.15,19.95Z"/><path class="cls-1" d="M545.59,157.5c-1.85-1.83.14-2.27,1.88-2.5,7.21-.97,21.06,2.59,28.68,4.17,5.12,1.07,32.64,6.6,32.57,11.61.32,0-2.57,3.61-7.85,2.94-7.69-.99-55.27-16.22-55.27-16.22Z"/><path class="cls-1" d="M607.6,197.31s1.37.51,3.89.63c1.18.05,2.09.65,1.18,1.41-4.66,4.05-11.63.44-12.04-5.89-.28-4.26,3.43-8.18,7.25-9.5,1.02-.35,1.44.81.56,1.44-3.2,2.29-3.57,4.24-3.85,5.89-.49,2.8.9,5.45,3.04,6.02h-.02Z"/><path class="cls-1" d="M319.38,300.96c-10.33,2.83-6.35,24.8,2.2,25.05,11.07.33,10.58-28.55-2.2-25.05ZM324.73,319.97c-.81,1.57-2.99,1.85-4.38.74-3.27-2.64-3.24-10.18-.63-12.33,4.96-3.34,7.23,7.27,5.01,11.59Z"/><path class="cls-1" d="M564.3,282.68c-10.33,2.83-6.34,24.8,2.2,25.05,11.08.32,10.59-28.55-2.2-25.05ZM569.65,301.66c-.81,1.57-2.98,1.85-4.38.74-3.26-2.64-3.24-10.17-.62-12.33,4.96-3.33,7.23,7.28,5,11.59Z"/></svg>