<?xml version="1.0" encoding="UTF-8"?><svg id="Layer_1" xmlns="http://www.w3.org/2000/svg" viewBox="0 0 612.14 344.87"><defs><style>.cls-1{fill:#127cb4;stroke-width:0px;}</style></defs><g id="jAjrGY"><path class="cls-1" d="M551.8,339h-23c-15.81-3.01-31.59-6.18-47.45-8.96-13.09-2.3-26.24-5.7-39.41-5.89-63.78-.91-127.58-1.39-191.36-1.05-38.2.2-76.6-2.21-114.47,5.82-17.69,3.75-35.54,6.74-53.32,10.08h-23c-1.24-.34-2.47-.79-3.74-1-14.85-2.45-27.89-8.37-35.89-21.62-4.39-7.27-7.57-15.43-10.24-23.54-2.19-6.68-2.82-13.87-4.14-20.83,0-8.33,0-16.67,0-25,.84-5.21,1.8-10.4,2.5-15.62,3.54-26.68,6.98-53.38,10.53-80.06,1.6-12.02,2.31-24.28,5.29-35.96,7.26-28.46,15.56-56.65,23.57-84.92.6-2.12,1.88-4.24,3.38-5.88,8.09-8.87,17.29-16,29.73-17.57,7.67,0,15.33,0,23,0,7.85,1.34,15.83,2.18,23.52,4.15,8.48,2.17,16.82,5.06,24.96,8.29,4.06,1.62,7.02,4.85,6.44,10.16-1.04,9.43-1.87,18.89-2.58,28.35-1.06,14.28-2.15,28.48,5.12,41.93,1.55,2.86.95,7.53-.04,10.97-1.5,5.23-4.4,10.04-6.35,15.16-2.47,6.53-6.95,11.11-13.36,13.28-8.78,2.96-17.73,5.54-26.74,7.7-4.23,1.01-6.86,2.4-8.24,6.92-6.97,22.89-14.64,45.57-21.35,68.53-3.49,11.94-6.59,24.3-4.37,36.9,3.23,18.32,12.09,23.76,28.25,17.08,1.54-.63,3.18-1.11,4.57-1.98,11.81-7.43,23.71-14.74,35.26-22.56,3.15-2.13,5.75-5.54,7.69-8.89,25.8-44.67,51.51-89.39,77.02-134.22,3.31-5.82,7.74-8.81,14.12-9.5,2.98-.33,5.94-.88,8.92-1.12,32.78-2.7,65.55-2.48,98.36-.15,12.01.85,20.36,4.9,26.6,16.2,23.35,42.22,47.79,83.85,71.57,125.84,3.38,5.97,7.47,10.81,13.02,14.73,12.39,8.73,24.64,17.69,39.19,22.63,12.9,4.38,21.18.55,24.13-12.69,1.73-7.74,1.94-16.33.6-24.15-5.23-30.59-15.11-59.92-26.12-88.85-.64-1.69-2.92-3.32-4.76-3.88-9.36-2.85-18.94-4.98-28.22-8.06-6.87-2.28-11.94-6.97-14.45-14.18-1.53-4.38-3.5-8.64-5.61-12.78-2.66-5.21-2.38-10.21.18-15.29,3.02-5.99,5.33-12.12,4.87-19.06-1.01-15.27-1.65-30.57-2.8-45.83-.58-7.63.09-10.19,7.02-13.64,4.87-2.42,10.05-4.57,15.33-5.78,10.67-2.44,21.51-4.15,32.27-6.17,7.67,0,15.33,0,23,0,5.82,2.21,12.15,3.58,17.34,6.81,9.31,5.79,15.97,13.58,18.53,25.18,6.94,31.4,19.29,61.47,23.59,93.56,3.92,29.31,7.69,58.65,11.6,87.96,1.18,8.85,2.62,17.66,3.93,26.49v25c-1.35,7.13-2.29,14.37-4.13,21.37-5.26,19.95-15.4,35.95-36.45,42.37-4.39,1.34-8.94,2.18-13.41,3.25ZM370.06,206.58c0-35.79-28.6-64.52-64.23-64.54-35.64-.02-64.25,28.68-64.3,64.47-.05,35.56,28.85,64.41,64.48,64.37,35.27-.04,64.05-28.94,64.05-64.3ZM125.15,58.16c6.71.11,12.17-4.99,12.41-11.58.24-6.62-5.47-12.48-12.16-12.5-6.56-.01-12,5.39-12.08,12-.08,6.7,5.07,11.97,11.83,12.08ZM483.11,58.16c6.9-.03,11.97-5.14,11.93-12.02-.04-6.75-5.4-12.1-12.06-12.05-6.52.05-12.11,5.69-12.09,12.2.02,6.66,5.42,11.91,12.21,11.87Z"/></g></svg>